<?xml version="1.0" encoding="UTF-8"?>
<!--Generator: Apple Native CoreSVG 148-->
<!DOCTYPE svg
PUBLIC "-//W3C//DTD SVG 1.1//EN"
       "http://www.w3.org/Graphics/SVG/1.1/DTD/svg11.dtd">
<svg version="1.1" xmlns="http://www.w3.org/2000/svg" xmlns:xlink="http://www.w3.org/1999/xlink" width="3300" height="2200">
 <!--glyph: "uni1008CC.medium", point size: 100.000000, font version: "Version 16.0d11e1", template writer version: "8"-->
 <g id="Notes">
  <rect height="2200" id="artboard" style="fill:white;opacity:1" width="3300" x="0" y="0"/>
  <line id="" style="fill:none;stroke:black;opacity:1;stroke-width:0.5;" x1="263" x2="3036" y1="292" y2="292"/>
  <text style="stroke:none;fill:black;font-family:-apple-system,&quot;SF Pro Display&quot;,&quot;SF Pro Text&quot;,Helvetica,sans-serif;font-weight:bold;" transform="matrix(1 0 0 1 263 322)">Weight/Scale Variations</text>
  <text style="stroke:none;fill:black;font-family:-apple-system,&quot;SF Pro Display&quot;,&quot;SF Pro Text&quot;,Helvetica,sans-serif;text-anchor:middle;" transform="matrix(1 0 0 1 559.711 322)">Ultralight</text>
  <text style="stroke:none;fill:black;font-family:-apple-system,&quot;SF Pro Display&quot;,&quot;SF Pro Text&quot;,Helvetica,sans-serif;text-anchor:middle;" transform="matrix(1 0 0 1 856.422 322)">Thin</text>
  <text style="stroke:none;fill:black;font-family:-apple-system,&quot;SF Pro Display&quot;,&quot;SF Pro Text&quot;,Helvetica,sans-serif;text-anchor:middle;" transform="matrix(1 0 0 1 1153.13 322)">Light</text>
  <text style="stroke:none;fill:black;font-family:-apple-system,&quot;SF Pro Display&quot;,&quot;SF Pro Text&quot;,Helvetica,sans-serif;text-anchor:middle;" transform="matrix(1 0 0 1 1449.84 322)">Regular</text>
  <text style="stroke:none;fill:black;font-family:-apple-system,&quot;SF Pro Display&quot;,&quot;SF Pro Text&quot;,Helvetica,sans-serif;text-anchor:middle;" transform="matrix(1 0 0 1 1746.56 322)">Medium</text>
  <text style="stroke:none;fill:black;font-family:-apple-system,&quot;SF Pro Display&quot;,&quot;SF Pro Text&quot;,Helvetica,sans-serif;text-anchor:middle;" transform="matrix(1 0 0 1 2043.27 322)">Semibold</text>
  <text style="stroke:none;fill:black;font-family:-apple-system,&quot;SF Pro Display&quot;,&quot;SF Pro Text&quot;,Helvetica,sans-serif;text-anchor:middle;" transform="matrix(1 0 0 1 2339.98 322)">Bold</text>
  <text style="stroke:none;fill:black;font-family:-apple-system,&quot;SF Pro Display&quot;,&quot;SF Pro Text&quot;,Helvetica,sans-serif;text-anchor:middle;" transform="matrix(1 0 0 1 2636.69 322)">Heavy</text>
  <text style="stroke:none;fill:black;font-family:-apple-system,&quot;SF Pro Display&quot;,&quot;SF Pro Text&quot;,Helvetica,sans-serif;text-anchor:middle;" transform="matrix(1 0 0 1 2933.4 322)">Black</text>
  <line id="" style="fill:none;stroke:black;opacity:1;stroke-width:0.5;" x1="263" x2="3036" y1="1903" y2="1903"/>
  <g id="" transform="matrix(1 0 0 1 263 1933)">
   <path d="M 9.24805 0.830078 C 13.5547 0.830078 17.1387 -2.74414 17.1387 -7.05078 C 17.1387 -11.3574 13.5449 -14.9316 9.23828 -14.9316 C 4.94141 -14.9316 1.36719 -11.3574 1.36719 -7.05078 C 1.36719 -2.74414 4.95117 0.830078 9.24805 0.830078 Z M 9.24805 -0.654297 C 5.70312 -0.654297 2.87109 -3.49609 2.87109 -7.05078 C 2.87109 -10.6055 5.69336 -13.4473 9.23828 -13.4473 C 12.793 -13.4473 15.6348 -10.6055 15.6445 -7.05078 C 15.6543 -3.49609 12.8027 -0.654297 9.24805 -0.654297 Z M 9.22852 -3.62305 C 9.69727 -3.62305 9.9707 -3.93555 9.9707 -4.45312 L 9.9707 -6.31836 L 12.002 -6.31836 C 12.5 -6.31836 12.832 -6.57227 12.832 -7.04102 C 12.832 -7.51953 12.5195 -7.7832 12.002 -7.7832 L 9.9707 -7.7832 L 9.9707 -9.81445 C 9.9707 -10.332 9.69727 -10.6543 9.22852 -10.6543 C 8.75977 -10.6543 8.50586 -10.3125 8.50586 -9.81445 L 8.50586 -7.7832 L 6.49414 -7.7832 C 5.97656 -7.7832 5.64453 -7.51953 5.64453 -7.04102 C 5.64453 -6.57227 5.99609 -6.31836 6.49414 -6.31836 L 8.50586 -6.31836 L 8.50586 -4.45312 C 8.50586 -3.95508 8.75977 -3.62305 9.22852 -3.62305 Z"/>
  </g>
  <g id="" transform="matrix(1 0 0 1 281.506 1933)">
   <path d="M 11.709 2.91016 C 17.1582 2.91016 21.6699 -1.61133 21.6699 -7.05078 C 21.6699 -12.5 17.1484 -17.0117 11.6992 -17.0117 C 6.25977 -17.0117 1.74805 -12.5 1.74805 -7.05078 C 1.74805 -1.61133 6.26953 2.91016 11.709 2.91016 Z M 11.709 1.25 C 7.09961 1.25 3.41797 -2.44141 3.41797 -7.05078 C 3.41797 -11.6602 7.08984 -15.3516 11.6992 -15.3516 C 16.3086 -15.3516 20 -11.6602 20.0098 -7.05078 C 20.0195 -2.44141 16.3184 1.25 11.709 1.25 Z M 11.6797 -2.66602 C 12.207 -2.66602 12.5098 -3.01758 12.5098 -3.59375 L 12.5098 -6.23047 L 15.3223 -6.23047 C 15.8691 -6.23047 16.25 -6.51367 16.25 -7.03125 C 16.25 -7.55859 15.8887 -7.86133 15.3223 -7.86133 L 12.5098 -7.86133 L 12.5098 -10.6836 C 12.5098 -11.25 12.207 -11.6113 11.6797 -11.6113 C 11.1621 -11.6113 10.8789 -11.2305 10.8789 -10.6836 L 10.8789 -7.86133 L 8.07617 -7.86133 C 7.50977 -7.86133 7.13867 -7.55859 7.13867 -7.03125 C 7.13867 -6.51367 7.5293 -6.23047 8.07617 -6.23047 L 10.8789 -6.23047 L 10.8789 -3.59375 C 10.8789 -3.03711 11.1621 -2.66602 11.6797 -2.66602 Z"/>
  </g>
  <g id="" transform="matrix(1 0 0 1 304.924 1933)">
   <path d="M 14.9707 5.66406 C 21.9336 5.66406 27.6953 -0.0976562 27.6953 -7.05078 C 27.6953 -14.0137 21.9238 -19.7754 14.9609 -19.7754 C 8.00781 -19.7754 2.25586 -14.0137 2.25586 -7.05078 C 2.25586 -0.0976562 8.01758 5.66406 14.9707 5.66406 Z M 14.9707 3.84766 C 8.93555 3.84766 4.08203 -1.01562 4.08203 -7.05078 C 4.08203 -13.0957 8.92578 -17.9492 14.9609 -17.9492 C 21.0059 -17.9492 25.8594 -13.0957 25.8691 -7.05078 C 25.8789 -1.01562 21.0156 3.84766 14.9707 3.84766 Z M 14.9414 -1.38672 C 15.5176 -1.38672 15.8594 -1.77734 15.8594 -2.38281 L 15.8594 -6.13281 L 19.7754 -6.13281 C 20.3711 -6.13281 20.7812 -6.46484 20.7812 -7.02148 C 20.7812 -7.59766 20.3906 -7.93945 19.7754 -7.93945 L 15.8594 -7.93945 L 15.8594 -11.8652 C 15.8594 -12.4805 15.5176 -12.8711 14.9414 -12.8711 C 14.375 -12.8711 14.0527 -12.4609 14.0527 -11.8652 L 14.0527 -7.93945 L 10.1465 -7.93945 C 9.53125 -7.93945 9.13086 -7.59766 9.13086 -7.02148 C 9.13086 -6.46484 9.55078 -6.13281 10.1465 -6.13281 L 14.0527 -6.13281 L 14.0527 -2.38281 C 14.0527 -1.79688 14.375 -1.38672 14.9414 -1.38672 Z"/>
  </g>
  <text style="stroke:none;fill:black;font-family:-apple-system,&quot;SF Pro Display&quot;,&quot;SF Pro Text&quot;,Helvetica,sans-serif;font-weight:bold;" transform="matrix(1 0 0 1 263 1953)">Design Variations</text>
  <text style="stroke:none;fill:black;font-family:-apple-system,&quot;SF Pro Display&quot;,&quot;SF Pro Text&quot;,Helvetica,sans-serif;" transform="matrix(1 0 0 1 263 1971)">Symbols are supported in up to nine weights and three scales.</text>
  <text style="stroke:none;fill:black;font-family:-apple-system,&quot;SF Pro Display&quot;,&quot;SF Pro Text&quot;,Helvetica,sans-serif;" transform="matrix(1 0 0 1 263 1989)">For optimal layout with text and other symbols, vertically align</text>
  <text style="stroke:none;fill:black;font-family:-apple-system,&quot;SF Pro Display&quot;,&quot;SF Pro Text&quot;,Helvetica,sans-serif;" transform="matrix(1 0 0 1 263 2007)">symbols with the adjacent text.</text>
  <line id="" style="fill:none;stroke:#00AEEF;stroke-width:0.5;opacity:1.0;" x1="776" x2="776" y1="1919" y2="1933"/>
  <g id="" transform="matrix(1 0 0 1 776 1933)">
   <path d="M 3.31055 0.126953 C 3.82812 0.126953 4.08203 -0.0683594 4.26758 -0.605469 L 5.52734 -4.0625 L 11.2891 -4.0625 L 12.5488 -0.605469 C 12.7344 -0.0683594 12.9883 0.126953 13.4961 0.126953 C 14.0137 0.126953 14.3457 -0.185547 14.3457 -0.673828 C 14.3457 -0.839844 14.3164 -0.986328 14.2383 -1.20117 L 9.6582 -13.3887 C 9.43359 -13.9941 9.0332 -14.2871 8.4082 -14.2871 C 7.80273 -14.2871 7.39258 -13.9941 7.17773 -13.3984 L 2.59766 -1.19141 C 2.51953 -0.976562 2.49023 -0.830078 2.49023 -0.664062 C 2.49023 -0.175781 2.80273 0.126953 3.31055 0.126953 Z M 6.00586 -5.53711 L 8.37891 -12.1094 L 8.42773 -12.1094 L 10.8008 -5.53711 Z"/>
  </g>
  <line id="" style="fill:none;stroke:#00AEEF;stroke-width:0.5;opacity:1.0;" x1="792.836" x2="792.836" y1="1919" y2="1933"/>
  <text style="stroke:none;fill:black;font-family:-apple-system,&quot;SF Pro Display&quot;,&quot;SF Pro Text&quot;,Helvetica,sans-serif;font-weight:bold;" transform="matrix(1 0 0 1 776 1953)">Margins</text>
  <text style="stroke:none;fill:black;font-family:-apple-system,&quot;SF Pro Display&quot;,&quot;SF Pro Text&quot;,Helvetica,sans-serif;" transform="matrix(1 0 0 1 776 1971)">Leading and trailing margins on the left and right side of each symbol</text>
  <text style="stroke:none;fill:black;font-family:-apple-system,&quot;SF Pro Display&quot;,&quot;SF Pro Text&quot;,Helvetica,sans-serif;" transform="matrix(1 0 0 1 776 1989)">can be adjusted by modifying the x-location of the margin guidelines.</text>
  <text style="stroke:none;fill:black;font-family:-apple-system,&quot;SF Pro Display&quot;,&quot;SF Pro Text&quot;,Helvetica,sans-serif;" transform="matrix(1 0 0 1 776 2007)">Modifications are automatically applied proportionally to all</text>
  <text style="stroke:none;fill:black;font-family:-apple-system,&quot;SF Pro Display&quot;,&quot;SF Pro Text&quot;,Helvetica,sans-serif;" transform="matrix(1 0 0 1 776 2025)">scales and weights.</text>
  <g id="" transform="matrix(1 0 0 1 1289 1933)">
   <path d="M 2.8418 1.86523 L 4.54102 3.57422 C 5.40039 4.44336 6.38672 4.38477 7.31445 3.35938 L 17.4902 -7.85156 C 17.7539 -7.76367 18.0273 -7.7832 18.3398 -7.8418 L 19.4043 -8.03711 L 20.0684 -7.36328 L 20.0293 -6.80664 C 19.9902 -6.30859 20.1172 -5.92773 20.6055 -5.44922 L 21.3672 -4.70703 C 21.8457 -4.22852 22.4609 -4.19922 22.9297 -4.66797 L 25.8398 -7.58789 C 26.3086 -8.05664 26.2891 -8.65234 25.8105 -9.13086 L 25.0391 -9.89258 C 24.5605 -10.3711 24.1895 -10.5273 23.7109 -10.4883 L 23.1348 -10.4395 L 22.4902 -11.0742 L 22.7344 -12.1973 C 22.8613 -12.7637 22.7051 -13.2031 22.1191 -13.7891 L 19.9219 -15.9766 C 16.582 -19.2969 12.1484 -19.2188 9.25781 -16.3281 C 8.83789 -15.918 8.80859 -15.3418 9.04297 -14.9512 C 9.27734 -14.5898 9.73633 -14.3555 10.3809 -14.5215 C 11.8457 -14.8633 13.3691 -14.9219 14.7949 -13.9844 L 14.209 -12.5293 C 14.0137 -12.0508 13.9844 -11.6504 14.1113 -11.2891 L 3.04688 -0.898438 C 2.06055 0.0195312 1.98242 0.996094 2.8418 1.86523 Z M 10.752 -15.957 C 13.1836 -17.7344 16.4746 -17.4316 18.7012 -15.2051 L 21.1328 -12.793 C 21.3672 -12.5586 21.4062 -12.373 21.3379 -12.0312 L 21.0156 -10.5469 L 22.5195 -9.0625 L 23.5059 -9.12109 C 23.7598 -9.13086 23.8379 -9.11133 24.0332 -8.91602 L 24.6094 -8.33984 L 22.168 -5.89844 L 21.5918 -6.47461 C 21.3965 -6.66992 21.3672 -6.74805 21.377 -7.01172 L 21.4453 -7.98828 L 19.9512 -9.47266 L 18.4277 -9.21875 C 18.1055 -9.15039 17.959 -9.17969 17.7148 -9.41406 L 15.7129 -11.416 C 15.459 -11.6504 15.4297 -11.8164 15.5859 -12.1875 L 16.4648 -14.2773 C 14.9023 -15.7324 12.8711 -16.3574 10.8398 -15.7617 C 10.6836 -15.7227 10.625 -15.8496 10.752 -15.957 Z M 5.27344 2.30469 L 4.10156 1.14258 C 3.63281 0.683594 3.74023 0.341797 4.14062 -0.0195312 L 14.9512 -10.1953 L 16.416 -8.71094 L 6.42578 2.27539 C 6.07422 2.67578 5.74219 2.77344 5.27344 2.30469 Z"/>
  </g>
  <text style="stroke:none;fill:black;font-family:-apple-system,&quot;SF Pro Display&quot;,&quot;SF Pro Text&quot;,Helvetica,sans-serif;font-weight:bold;" transform="matrix(1 0 0 1 1289 1953)">Exporting</text>
  <text style="stroke:none;fill:black;font-family:-apple-system,&quot;SF Pro Display&quot;,&quot;SF Pro Text&quot;,Helvetica,sans-serif;" transform="matrix(1 0 0 1 1289 1971)">Symbols should be outlined when exporting to ensure the</text>
  <text style="stroke:none;fill:black;font-family:-apple-system,&quot;SF Pro Display&quot;,&quot;SF Pro Text&quot;,Helvetica,sans-serif;" transform="matrix(1 0 0 1 1289 1989)">design is preserved when submitting to Xcode.</text>
  <text id="template-version" style="stroke:none;fill:black;font-family:-apple-system,&quot;SF Pro Display&quot;,&quot;SF Pro Text&quot;,Helvetica,sans-serif;text-anchor:end;" transform="matrix(1 0 0 1 3036 1933)">Template v.2.0</text>
  <text style="stroke:none;fill:black;font-family:-apple-system,&quot;SF Pro Display&quot;,&quot;SF Pro Text&quot;,Helvetica,sans-serif;text-anchor:end;" transform="matrix(1 0 0 1 3036 1951)">Requires Xcode 12 or greater</text>
  <text style="stroke:none;fill:black;font-family:-apple-system,&quot;SF Pro Display&quot;,&quot;SF Pro Text&quot;,Helvetica,sans-serif;text-anchor:end;" transform="matrix(1 0 0 1 3036 1969)">Generated from gearshape.fill</text>
  <text style="stroke:none;fill:black;font-family:-apple-system,&quot;SF Pro Display&quot;,&quot;SF Pro Text&quot;,Helvetica,sans-serif;text-anchor:end;" transform="matrix(1 0 0 1 3036 1987)">Typeset at 100 points</text>
  <text style="stroke:none;fill:black;font-family:-apple-system,&quot;SF Pro Display&quot;,&quot;SF Pro Text&quot;,Helvetica,sans-serif;" transform="matrix(1 0 0 1 263 726)">Small</text>
  <text style="stroke:none;fill:black;font-family:-apple-system,&quot;SF Pro Display&quot;,&quot;SF Pro Text&quot;,Helvetica,sans-serif;" transform="matrix(1 0 0 1 263 1156)">Medium</text>
  <text style="stroke:none;fill:black;font-family:-apple-system,&quot;SF Pro Display&quot;,&quot;SF Pro Text&quot;,Helvetica,sans-serif;" transform="matrix(1 0 0 1 263 1586)">Large</text>
 </g>
 <g id="Guides">
  <g id="H-reference" style="fill:#27AAE1;stroke:none;" transform="matrix(1 0 0 1 339 696)">
   <path d="M 0.976562 0 L 3.66211 0 L 12.9883 -24.4629 L 45.7031 -24.4629 L 55.0781 0 L 57.7148 0 L 30.6152 -70.459 L 28.125 -70.459 Z M 29.2969 -67.1387 L 29.3945 -67.1387 L 44.873 -26.709 L 13.8672 -26.709 Z"/>
  </g>
  <line id="Baseline-S" style="fill:none;stroke:#27AAE1;opacity:1;stroke-width:0.5;" x1="263" x2="3036" y1="696" y2="696"/>
  <line id="Capline-S" style="fill:none;stroke:#27AAE1;opacity:1;stroke-width:0.5;" x1="263" x2="3036" y1="625.541" y2="625.541"/>
  <g id="H-reference" style="fill:#27AAE1;stroke:none;" transform="matrix(1 0 0 1 339 1126)">
   <path d="M 0.976562 0 L 3.66211 0 L 12.9883 -24.4629 L 45.7031 -24.4629 L 55.0781 0 L 57.7148 0 L 30.6152 -70.459 L 28.125 -70.459 Z M 29.2969 -67.1387 L 29.3945 -67.1387 L 44.873 -26.709 L 13.8672 -26.709 Z"/>
  </g>
  <line id="Baseline-M" style="fill:none;stroke:#27AAE1;opacity:1;stroke-width:0.5;" x1="263" x2="3036" y1="1126" y2="1126"/>
  <line id="Capline-M" style="fill:none;stroke:#27AAE1;opacity:1;stroke-width:0.5;" x1="263" x2="3036" y1="1055.54" y2="1055.54"/>
  <g id="H-reference" style="fill:#27AAE1;stroke:none;" transform="matrix(1 0 0 1 339 1556)">
   <path d="M 0.976562 0 L 3.66211 0 L 12.9883 -24.4629 L 45.7031 -24.4629 L 55.0781 0 L 57.7148 0 L 30.6152 -70.459 L 28.125 -70.459 Z M 29.2969 -67.1387 L 29.3945 -67.1387 L 44.873 -26.709 L 13.8672 -26.709 Z"/>
  </g>
  <line id="Baseline-L" style="fill:none;stroke:#27AAE1;opacity:1;stroke-width:0.5;" x1="263" x2="3036" y1="1556" y2="1556"/>
  <line id="Capline-L" style="fill:none;stroke:#27AAE1;opacity:1;stroke-width:0.5;" x1="263" x2="3036" y1="1485.54" y2="1485.54"/>
  <line id="left-margin" style="fill:none;stroke:#00AEEF;stroke-width:0.5;opacity:1.0;" x1="1390.08" x2="1390.08" y1="1030.79" y2="1150.12"/>
  <line id="right-margin" style="fill:none;stroke:#00AEEF;stroke-width:0.5;opacity:1.0;" x1="1509.61" x2="1509.61" y1="1030.79" y2="1150.12"/>
 </g>
 <g id="Symbols">
  <g id="Black-L" transform="matrix(1 0 0 1 2851.37 1556)">
   <path d="M 76.416 35.4492 L 87.6953 35.4492 C 92.9199 35.4492 97.1191 32.1777 98.1934 27.0996 L 101.074 15.2344 C 102.295 14.8438 103.467 14.3066 104.59 13.8184 L 114.893 20.2148 C 119.238 22.8516 124.609 22.3633 128.223 18.75 L 136.182 10.8398 C 139.795 7.17773 140.283 1.61133 137.451 -2.63672 L 131.201 -12.8906 C 131.689 -13.9648 132.178 -15.0391 132.52 -16.1621 L 144.531 -19.043 C 149.561 -20.1172 152.783 -24.3164 152.783 -29.541 L 152.783 -40.5762 C 152.783 -45.752 149.561 -49.9023 144.531 -51.0742 L 132.715 -53.9062 C 132.275 -55.127 131.787 -56.2988 131.299 -57.2754 L 137.646 -67.8223 C 140.43 -72.2656 139.99 -77.5879 136.182 -81.2012 L 128.125 -89.1602 C 124.463 -92.4316 119.678 -93.0664 115.332 -90.7227 L 104.59 -84.1309 C 103.516 -84.668 102.344 -85.1074 101.123 -85.5957 L 98.1934 -97.6562 C 97.1191 -102.686 92.9199 -105.957 87.6953 -105.957 L 76.416 -105.957 C 71.1426 -105.957 66.9922 -102.686 65.8691 -97.6074 L 63.0371 -85.6934 C 61.7676 -85.3027 60.498 -84.7656 59.4238 -84.1797 L 48.7793 -90.7227 C 44.3359 -93.0664 39.6484 -92.4805 35.9375 -89.1113 L 27.8809 -81.2012 C 24.1211 -77.5879 23.6328 -72.2656 26.4648 -67.8223 L 32.7637 -57.2754 C 32.2754 -56.2988 31.7871 -55.127 31.3965 -53.9062 L 19.5801 -51.0742 C 14.5508 -49.9023 11.2793 -45.752 11.2793 -40.5762 L 11.2793 -29.541 C 11.2793 -24.3164 14.5508 -20.1172 19.5801 -19.043 L 31.543 -16.1621 C 31.9336 -15.0391 32.373 -13.9648 32.8613 -12.8906 L 26.6113 -2.63672 C 23.7793 1.61133 24.3164 7.17773 27.9297 10.8398 L 35.8398 18.75 C 39.502 22.3633 44.873 22.8516 49.1699 20.2148 L 59.5215 13.8184 C 60.5957 14.3066 61.7676 14.8438 63.0371 15.2344 L 65.8691 27.0996 C 66.9922 32.1777 71.1426 35.4492 76.416 35.4492 Z M 82.0312 -13.8672 C 70.3125 -13.8672 60.6934 -23.4863 60.6934 -35.3027 C 60.6934 -46.9238 70.3125 -56.543 82.0312 -56.543 C 93.7988 -56.543 103.369 -46.9238 103.369 -35.3027 C 103.369 -23.4863 93.7988 -13.8672 82.0312 -13.8672 Z"/>
  </g>
  <g id="Heavy-L" transform="matrix(1 0 0 1 2555.9 1556)">
   <path d="M 75.0977 34.2285 L 86.4746 34.2285 C 91.3086 34.2285 95.0684 31.25 96.0938 26.6113 L 99.0234 14.3066 C 100.488 13.8184 101.904 13.2324 103.223 12.6465 L 113.916 19.2383 C 117.92 21.6797 122.754 21.2402 126.074 17.9688 L 134.082 9.91211 C 137.402 6.5918 137.842 1.61133 135.254 -2.34375 L 128.76 -12.9883 C 129.346 -14.2578 129.883 -15.625 130.371 -16.9922 L 142.725 -19.9219 C 147.412 -20.9473 150.293 -24.6582 150.293 -29.4922 L 150.293 -40.6738 C 150.293 -45.4102 147.412 -49.1699 142.725 -50.1953 L 130.518 -53.125 C 129.98 -54.6387 129.395 -56.0547 128.857 -57.2266 L 135.4 -68.1152 C 137.988 -72.168 137.598 -76.9531 134.131 -80.2734 L 125.977 -88.3301 C 122.607 -91.3574 118.311 -91.8945 114.307 -89.7461 L 103.223 -82.9102 C 101.953 -83.5449 100.537 -84.1309 99.0723 -84.668 L 96.0938 -97.1191 C 95.0684 -101.758 91.3086 -104.736 86.4746 -104.736 L 75.0977 -104.736 C 70.2637 -104.736 66.5527 -101.758 65.5273 -97.0703 L 62.5977 -84.7656 C 61.084 -84.2773 59.6191 -83.6426 58.3008 -83.0078 L 47.3145 -89.7461 C 43.2617 -91.8945 38.9648 -91.4062 35.5957 -88.2812 L 27.4414 -80.2734 C 24.0234 -76.9531 23.584 -72.168 26.1719 -68.1152 L 32.7148 -57.2266 C 32.1777 -56.0547 31.5918 -54.6387 31.1035 -53.125 L 18.8477 -50.1953 C 14.209 -49.1699 11.2793 -45.4102 11.2793 -40.6738 L 11.2793 -29.4922 C 11.2793 -24.6582 14.209 -20.9473 18.8477 -19.9219 L 31.25 -16.9922 C 31.6895 -15.625 32.2266 -14.2578 32.8125 -12.9883 L 26.3184 -2.34375 C 23.7305 1.61133 24.1699 6.5918 27.4902 9.91211 L 35.5469 17.9688 C 38.8672 21.2402 43.7012 21.6797 47.6562 19.2383 L 58.3496 12.6465 C 59.668 13.2324 61.084 13.8184 62.5977 14.3066 L 65.5273 26.6113 C 66.5527 31.25 70.2637 34.2285 75.0977 34.2285 Z M 80.8105 -13.623 C 68.9453 -13.623 59.2285 -23.3887 59.2285 -35.3027 C 59.2285 -47.0703 68.9453 -56.7871 80.8105 -56.7871 C 92.6758 -56.7871 102.393 -47.0703 102.393 -35.3027 C 102.393 -23.3887 92.6758 -13.623 80.8105 -13.623 Z"/>
  </g>
  <g id="Bold-L" transform="matrix(1 0 0 1 2260.58 1556)">
   <path d="M 73.6328 32.8613 L 85.1562 32.8613 C 89.502 32.8613 92.7734 30.2246 93.7012 26.0254 L 96.7285 13.2812 C 98.4863 12.6953 100.195 12.0117 101.709 11.2793 L 112.842 18.1641 C 116.406 20.4102 120.654 19.9707 123.633 17.041 L 131.738 8.93555 C 134.766 5.95703 135.156 1.5625 132.812 -2.00195 L 126.025 -13.0371 C 126.709 -14.5996 127.393 -16.2598 127.93 -17.8711 L 140.771 -20.8984 C 144.971 -21.8262 147.51 -25.0977 147.51 -29.4434 L 147.51 -40.7715 C 147.51 -45.0195 144.971 -48.291 140.771 -49.2188 L 128.027 -52.2949 C 127.441 -54.1016 126.758 -55.7617 126.123 -57.1777 L 132.91 -68.457 C 135.254 -72.0703 134.912 -76.2695 131.836 -79.248 L 123.584 -87.4023 C 120.557 -90.1367 116.748 -90.625 113.135 -88.623 L 101.709 -81.5918 C 100.195 -82.3242 98.5352 -83.0078 96.7773 -83.6426 L 93.7012 -96.5332 C 92.7734 -100.732 89.502 -103.369 85.1562 -103.369 L 73.6328 -103.369 C 69.3359 -103.369 66.0645 -100.732 65.1367 -96.5332 L 62.1094 -83.7402 C 60.3027 -83.1055 58.5449 -82.4219 57.0312 -81.6406 L 45.6543 -88.623 C 42.041 -90.625 38.2324 -90.1855 35.2051 -87.4023 L 27.002 -79.248 C 23.877 -76.2695 23.5352 -72.0703 25.8789 -68.457 L 32.666 -57.1777 C 32.0801 -55.7617 31.3477 -54.1016 30.7617 -52.2949 L 18.0664 -49.2188 C 13.8672 -48.291 11.2793 -45.0195 11.2793 -40.7715 L 11.2793 -29.4434 C 11.2793 -25.0977 13.8672 -21.8262 18.0664 -20.8984 L 30.9082 -17.8711 C 31.3965 -16.2598 32.0801 -14.5996 32.8125 -13.0371 L 26.0254 -2.00195 C 23.6328 1.5625 24.0723 5.95703 27.0508 8.93555 L 35.1562 17.041 C 38.1348 19.9707 42.3828 20.4102 45.9473 18.1641 L 57.0801 11.2793 C 58.6426 12.0117 60.3027 12.6953 62.1094 13.2812 L 65.1367 26.0254 C 66.0645 30.2246 69.3359 32.8613 73.6328 32.8613 Z M 79.4434 -13.3301 C 67.3828 -13.3301 57.5195 -23.2422 57.5195 -35.3027 C 57.5195 -47.2656 67.3828 -57.0801 79.4434 -57.0801 C 91.4551 -57.0801 101.27 -47.2656 101.27 -35.3027 C 101.27 -23.2422 91.4551 -13.3301 79.4434 -13.3301 Z"/>
  </g>
  <g id="Semibold-L" transform="matrix(1 0 0 1 1964.82 1556)">
   <path d="M 72.6074 31.8848 L 84.2773 31.8848 C 88.2324 31.8848 91.2109 29.541 92.041 25.6348 L 95.166 12.5977 C 97.0703 11.9141 98.9746 11.1328 100.684 10.3516 L 112.109 17.4316 C 115.381 19.4824 119.238 19.1406 121.973 16.4062 L 130.127 8.25195 C 132.91 5.46875 133.301 1.51367 131.104 -1.75781 L 124.121 -13.0859 C 124.902 -14.8438 125.635 -16.6504 126.221 -18.5059 L 139.404 -21.582 C 143.311 -22.4609 145.605 -25.3906 145.605 -29.3457 L 145.605 -40.8203 C 145.605 -44.7266 143.311 -47.7051 139.404 -48.584 L 126.367 -51.709 C 125.684 -53.7109 124.902 -55.5664 124.219 -57.1289 L 131.201 -68.6523 C 133.35 -72.0215 133.057 -75.8301 130.225 -78.5645 L 121.924 -86.7676 C 119.141 -89.3066 115.674 -89.7461 112.354 -87.8906 L 100.684 -80.6641 C 99.0234 -81.4941 97.168 -82.2266 95.166 -82.9102 L 92.041 -96.1426 C 91.2109 -100.049 88.2324 -102.393 84.2773 -102.393 L 72.6074 -102.393 C 68.6523 -102.393 65.7227 -100.049 64.8438 -96.1426 L 61.7676 -83.0078 C 59.8145 -82.3242 57.8613 -81.5918 56.1035 -80.7129 L 44.5312 -87.8906 C 41.1621 -89.7461 37.7441 -89.3555 34.9121 -86.7676 L 26.6602 -78.5645 C 23.8281 -75.8301 23.5352 -72.0215 25.6836 -68.6523 L 32.666 -57.1289 C 31.9824 -55.5664 31.2012 -53.7109 30.5176 -51.709 L 17.4805 -48.584 C 13.5742 -47.7051 11.2793 -44.7266 11.2793 -40.8203 L 11.2793 -29.3457 C 11.2793 -25.3906 13.5742 -22.4609 17.4805 -21.582 L 30.6641 -18.5059 C 31.25 -16.6504 31.9824 -14.8438 32.7637 -13.0859 L 25.7812 -1.75781 C 23.584 1.51367 23.9746 5.46875 26.709 8.25195 L 34.9121 16.4062 C 37.6465 19.1406 41.4551 19.4824 44.7754 17.4316 L 56.2012 10.3516 C 57.9102 11.1328 59.8145 11.9141 61.7676 12.5977 L 64.8438 25.6348 C 65.7227 29.541 68.6523 31.8848 72.6074 31.8848 Z M 78.4668 -13.1836 C 66.3086 -13.1836 56.3965 -23.1445 56.3965 -35.3027 C 56.3965 -47.3633 66.3574 -57.2754 78.4668 -57.2754 C 90.5762 -57.2754 100.537 -47.3633 100.537 -35.3027 C 100.537 -23.1445 90.5762 -13.1836 78.4668 -13.1836 Z"/>
  </g>
  <g id="Medium-L" transform="matrix(1 0 0 1 1668.85 1556)">
   <path d="M 71.875 31.2012 L 83.5938 31.2012 C 87.3047 31.2012 89.9902 29.0039 90.7715 25.3418 L 93.9453 12.0117 C 96.0449 11.3281 98.0469 10.498 99.9023 9.66797 L 111.523 16.8457 C 114.648 18.7988 118.115 18.457 120.703 15.918 L 128.906 7.71484 C 131.494 5.12695 131.885 1.51367 129.785 -1.61133 L 122.656 -13.1348 C 123.535 -15.0391 124.316 -16.9922 124.951 -18.9453 L 138.379 -22.1191 C 142.041 -22.9004 144.141 -25.6348 144.141 -29.3457 L 144.141 -40.8691 C 144.141 -44.5312 142.041 -47.2656 138.379 -48.0469 L 125.049 -51.2695 C 124.316 -53.418 123.486 -55.3711 122.754 -57.1289 L 129.932 -68.8477 C 131.934 -71.9727 131.641 -75.4395 129.004 -78.0273 L 120.703 -86.2793 C 118.066 -88.6719 114.893 -89.1113 111.719 -87.3047 L 99.9023 -79.9805 C 98.0957 -80.8594 96.0938 -81.6406 93.9453 -82.373 L 90.7715 -95.8496 C 89.9902 -99.5117 87.3047 -101.66 83.5938 -101.66 L 71.875 -101.66 C 68.1641 -101.66 65.4297 -99.5117 64.6484 -95.8008 L 61.4746 -82.4707 C 59.375 -81.7383 57.3242 -80.957 55.4688 -80.0293 L 43.7012 -87.3047 C 40.5273 -89.1113 37.3535 -88.7207 34.7168 -86.2793 L 26.416 -78.0273 C 23.7305 -75.4395 23.4863 -71.9727 25.4883 -68.8477 L 32.6172 -57.1289 C 31.8848 -55.3711 31.0547 -53.418 30.3711 -51.2695 L 17.0898 -48.0469 C 13.4277 -47.2656 11.2793 -44.5312 11.2793 -40.8691 L 11.2793 -29.3457 C 11.2793 -25.6348 13.4277 -22.9004 17.0898 -22.1191 L 30.4688 -18.9453 C 31.1035 -16.9922 31.8848 -15.0391 32.7637 -13.1348 L 25.5859 -1.61133 C 23.5352 1.51367 23.9258 5.12695 26.5137 7.71484 L 34.7168 15.918 C 37.2559 18.457 40.7715 18.7988 43.8965 16.8457 L 55.5176 9.66797 C 57.373 10.498 59.375 11.3281 61.4746 12.0117 L 64.6484 25.3418 C 65.4297 29.0039 68.1641 31.2012 71.875 31.2012 Z M 77.7344 -13.0371 C 65.5273 -13.0371 55.5176 -23.0957 55.5176 -35.3027 C 55.5176 -47.4121 65.5273 -57.4707 77.7344 -57.4707 C 89.9414 -57.4707 99.9512 -47.4121 99.9512 -35.3027 C 99.9512 -23.0957 89.9414 -13.0371 77.7344 -13.0371 Z"/>
  </g>
  <g id="Regular-L" transform="matrix(1 0 0 1 1373.09 1556)">
   <path d="M 70.8496 30.2734 L 82.666 30.2734 C 86.0352 30.2734 88.4277 28.3203 89.1602 24.9512 L 92.3828 11.3281 C 94.6289 10.5469 96.875 9.66797 98.877 8.74023 L 110.791 16.1133 C 113.623 17.9199 116.748 17.627 119.043 15.2832 L 127.344 7.03125 C 129.688 4.6875 130.029 1.51367 128.125 -1.36719 L 120.801 -13.1836 C 121.729 -15.2832 122.607 -17.4316 123.291 -19.5801 L 137.012 -22.8027 C 140.381 -23.5352 142.236 -25.9277 142.236 -29.2969 L 142.236 -40.9668 C 142.236 -44.2871 140.381 -46.6309 137.012 -47.4121 L 123.389 -50.6836 C 122.607 -53.0273 121.68 -55.1758 120.898 -57.0801 L 128.223 -69.0918 C 130.078 -71.9238 129.834 -75 127.441 -77.3438 L 119.043 -85.6445 C 116.65 -87.8418 113.818 -88.2324 110.938 -86.5234 L 98.877 -79.0527 C 96.9238 -80.0293 94.7266 -80.8594 92.3828 -81.6406 L 89.1602 -95.4102 C 88.4277 -98.7793 86.0352 -100.732 82.666 -100.732 L 70.8496 -100.732 C 67.4805 -100.732 65.0879 -98.7793 64.3555 -95.4102 L 61.1328 -81.7383 C 58.8867 -80.957 56.6406 -80.127 54.5898 -79.1016 L 42.5781 -86.5234 C 39.6973 -88.2324 36.8164 -87.8906 34.4727 -85.6445 L 26.0742 -77.3438 C 23.6816 -75 23.4375 -71.9238 25.293 -69.0918 L 32.6172 -57.0801 C 31.8359 -55.1758 30.9082 -53.0273 30.127 -50.6836 L 16.5039 -47.4121 C 13.1836 -46.6309 11.2793 -44.2871 11.2793 -40.9668 L 11.2793 -29.2969 C 11.2793 -25.9277 13.1836 -23.5352 16.5039 -22.8027 L 30.2246 -19.5801 C 30.9082 -17.4316 31.7871 -15.2832 32.7148 -13.1836 L 25.3906 -1.36719 C 23.4863 1.51367 23.8281 4.6875 26.1719 7.03125 L 34.4727 15.2832 C 36.7676 17.627 39.8926 17.9199 42.7246 16.1133 L 54.6387 8.74023 C 56.6895 9.66797 58.8867 10.5469 61.1328 11.3281 L 64.3555 24.9512 C 65.0879 28.3203 67.4805 30.2734 70.8496 30.2734 Z M 76.8066 -12.8418 C 64.4531 -12.8418 54.3457 -22.998 54.3457 -35.3027 C 54.3457 -47.5586 64.502 -57.666 76.8066 -57.666 C 89.1113 -57.666 99.2188 -47.5586 99.2188 -35.3027 C 99.2188 -22.998 89.1113 -12.8418 76.8066 -12.8418 Z"/>
  </g>
  <g id="Light-L" transform="matrix(1 0 0 1 1076.81 1556)">
   <path d="M 70.2148 29.7852 L 82.373 29.7852 C 85.8398 29.7852 88.2324 27.8809 89.0137 24.3164 L 92.1387 11.0352 C 94.1406 10.3027 96.1914 9.52148 98.0469 8.69141 L 109.668 15.9668 C 112.646 17.8711 115.723 17.5781 118.164 15.1367 L 126.66 6.64062 C 129.15 4.19922 129.443 1.07422 127.49 -1.95312 L 120.264 -13.5254 C 121.094 -15.4297 121.826 -17.3828 122.51 -19.3848 L 135.889 -22.5098 C 139.453 -23.291 141.357 -25.6348 141.357 -29.1016 L 141.357 -41.1621 C 141.357 -44.6289 139.453 -46.9727 135.889 -47.7539 L 122.559 -50.9277 C 121.826 -53.0273 121.045 -54.9805 120.312 -56.7871 L 127.539 -68.457 C 129.492 -71.4844 129.248 -74.5117 126.709 -77.002 L 118.164 -85.498 C 115.674 -87.8418 112.744 -88.2324 109.766 -86.377 L 98.0469 -79.0527 C 96.1914 -79.8828 94.1895 -80.6152 92.1387 -81.3477 L 89.0137 -94.7754 C 88.2324 -98.3398 85.8398 -100.244 82.373 -100.244 L 70.2148 -100.244 C 66.748 -100.244 64.4043 -98.3398 63.623 -94.7754 L 60.498 -81.4453 C 58.4473 -80.6641 56.3965 -79.9316 54.4922 -79.1016 L 42.8223 -86.377 C 39.7949 -88.2324 36.8652 -87.8906 34.4238 -85.498 L 25.8301 -77.002 C 23.3398 -74.5117 23.0957 -71.4844 25 -68.457 L 32.2266 -56.7871 C 31.4941 -54.9805 30.7129 -53.0273 29.9805 -50.9277 L 16.748 -47.7539 C 13.1836 -46.9727 11.2793 -44.6289 11.2793 -41.1621 L 11.2793 -29.1016 C 11.2793 -25.6348 13.1836 -23.291 16.748 -22.5098 L 30.0781 -19.3848 C 30.7129 -17.3828 31.4941 -15.4297 32.3242 -13.5254 L 25.0977 -1.95312 C 23.0957 1.07422 23.4375 4.19922 25.8789 6.64062 L 34.4238 15.1367 C 36.8164 17.5781 39.9414 17.8711 42.9199 15.9668 L 54.541 8.69141 C 56.4453 9.52148 58.4473 10.3027 60.498 11.0352 L 63.623 24.3164 C 64.4043 27.8809 66.748 29.7852 70.2148 29.7852 Z M 76.3672 -12.5977 C 63.916 -12.5977 53.6621 -22.8516 53.6621 -35.3027 C 53.6621 -47.6074 63.9648 -57.8613 76.3672 -57.8613 C 88.7695 -57.8613 98.9746 -47.6074 98.9746 -35.3027 C 98.9746 -22.8516 88.7695 -12.5977 76.3672 -12.5977 Z"/>
  </g>
  <g id="Thin-L" transform="matrix(1 0 0 1 780.714 1556)">
   <path d="M 69.3848 29.1992 L 81.9824 29.1992 C 85.5957 29.1992 87.9395 27.2949 88.7695 23.4863 L 91.7969 10.5957 C 93.5059 9.96094 95.2637 9.32617 96.9238 8.64258 L 108.154 15.7715 C 111.328 17.8223 114.404 17.5293 116.943 14.9414 L 125.781 6.10352 C 128.418 3.56445 128.711 0.488281 126.66 -2.73438 L 119.531 -13.916 C 120.215 -15.6738 120.85 -17.334 121.484 -19.0918 L 134.375 -22.1191 C 138.184 -22.9492 140.137 -25.293 140.137 -28.9062 L 140.137 -41.4551 C 140.137 -45.0684 138.184 -47.3633 134.375 -48.2422 L 121.484 -51.2695 C 120.85 -53.0273 120.215 -54.7363 119.58 -56.4453 L 126.66 -67.6758 C 128.711 -70.8984 128.418 -73.9258 125.781 -76.5137 L 116.943 -85.3516 C 114.404 -87.8418 111.377 -88.1836 108.203 -86.1328 L 96.9238 -79.0039 C 95.2637 -79.6875 93.5059 -80.3223 91.7969 -80.957 L 88.7695 -93.8965 C 87.9395 -97.7051 85.5957 -99.6094 81.9824 -99.6094 L 69.3848 -99.6094 C 65.8203 -99.6094 63.4766 -97.7051 62.5977 -93.8965 L 59.6191 -81.0059 C 57.8613 -80.3223 56.1523 -79.7363 54.3945 -79.0527 L 43.1152 -86.1328 C 39.9414 -88.1836 36.9141 -87.8906 34.375 -85.3516 L 25.5371 -76.5137 C 22.9004 -73.9258 22.6074 -70.8984 24.6582 -67.6758 L 31.7383 -56.4453 C 31.1035 -54.7363 30.4688 -53.0273 29.834 -51.2695 L 16.9922 -48.2422 C 13.1836 -47.3633 11.2793 -45.0684 11.2793 -41.4551 L 11.2793 -28.9062 C 11.2793 -25.293 13.1836 -22.9492 16.9922 -22.1191 L 29.834 -19.0918 C 30.4688 -17.334 31.1035 -15.6738 31.7871 -13.916 L 24.6582 -2.73438 C 22.6074 0.488281 22.9004 3.56445 25.5371 6.10352 L 34.375 14.9414 C 36.9141 17.5293 39.9902 17.8223 43.1641 15.7715 L 54.3945 8.64258 C 56.1523 9.32617 57.8613 9.96094 59.6191 10.5957 L 62.5977 23.4863 C 63.4766 27.2949 65.8203 29.1992 69.3848 29.1992 Z M 75.7812 -12.2559 C 63.1836 -12.2559 52.7832 -22.7051 52.7832 -35.2539 C 52.7832 -47.7051 63.2812 -58.1055 75.7812 -58.1055 C 88.2812 -58.1055 98.6816 -47.7051 98.6816 -35.2539 C 98.6816 -22.7051 88.2812 -12.2559 75.7812 -12.2559 Z"/>
  </g>
  <g id="Ultralight-L" transform="matrix(1 0 0 1 484.32 1556)">
   <path d="M 68.9941 28.9062 L 81.7871 28.9062 C 85.4492 28.9062 87.7441 27.002 88.6719 23.0469 L 91.6016 10.4004 C 93.1641 9.76562 94.7754 9.22852 96.3379 8.64258 L 107.422 15.6738 C 110.693 17.7734 113.721 17.4805 116.357 14.8438 L 125.342 5.85938 C 128.027 3.27148 128.369 0.195312 126.221 -3.125 L 119.189 -14.1602 C 119.775 -15.7715 120.312 -17.334 120.947 -18.9453 L 133.643 -21.9238 C 137.549 -22.8027 139.502 -25.1465 139.502 -28.7598 L 139.502 -41.6016 C 139.502 -45.2637 137.549 -47.6074 133.643 -48.4863 L 120.947 -51.416 C 120.312 -53.0273 119.824 -54.5898 119.189 -56.25 L 126.221 -67.2363 C 128.32 -70.6055 128.027 -73.6328 125.342 -76.2207 L 116.357 -85.2539 C 113.721 -87.8418 110.645 -88.1836 107.373 -86.0352 L 96.3379 -79.0039 C 94.7754 -79.6387 93.1152 -80.127 91.6016 -80.7617 L 88.6719 -93.457 C 87.7441 -97.3633 85.4492 -99.2676 81.7871 -99.2676 L 68.9941 -99.2676 C 65.332 -99.2676 62.9883 -97.3633 62.1094 -93.457 L 59.1309 -80.7617 C 57.5195 -80.127 56.0059 -79.5898 54.3457 -79.0039 L 43.2617 -86.0352 C 40.0391 -88.1836 36.9629 -87.8418 34.3262 -85.2539 L 25.3418 -76.2207 C 22.6562 -73.6328 22.3145 -70.6055 24.4629 -67.2363 L 31.4941 -56.25 C 30.8594 -54.5898 30.3711 -53.0273 29.7363 -51.416 L 17.1387 -48.4863 C 13.2324 -47.6074 11.2793 -45.2637 11.2793 -41.6016 L 11.2793 -28.7598 C 11.2793 -25.1465 13.2324 -22.8027 17.1387 -21.9238 L 29.7363 -18.9453 C 30.3711 -17.334 30.9082 -15.7715 31.4941 -14.1602 L 24.4629 -3.125 C 22.3145 0.195312 22.6562 3.27148 25.3418 5.85938 L 34.3262 14.8438 C 36.9629 17.4805 39.9902 17.7734 43.2617 15.6738 L 54.3457 8.64258 C 56.0059 9.22852 57.5195 9.76562 59.1309 10.4004 L 62.1094 23.0469 C 62.9883 27.002 65.332 28.9062 68.9941 28.9062 Z M 75.4883 -12.1094 C 62.793 -12.1094 52.2949 -22.6074 52.2949 -35.2539 C 52.2949 -47.7539 62.8906 -58.252 75.4883 -58.252 C 88.0371 -58.252 98.5352 -47.7539 98.5352 -35.2539 C 98.5352 -22.6074 88.0371 -12.1094 75.4883 -12.1094 Z"/>
  </g>
  <g id="Black-M" transform="matrix(1 0 0 1 2868.39 1126)">
   <path d="M 60.6445 20.9473 L 69.3848 20.9473 C 74.1211 20.9473 77.8809 17.9688 78.9062 13.4277 L 80.957 4.98047 C 81.4453 4.78516 81.9336 4.54102 82.373 4.39453 L 89.7461 8.98438 C 93.6523 11.377 98.5352 10.8398 101.807 7.61719 L 107.959 1.46484 C 111.23 -1.80664 111.719 -6.83594 109.18 -10.6934 L 104.736 -18.0176 C 104.883 -18.4082 105.078 -18.7988 105.225 -19.2871 L 113.77 -21.2891 C 118.311 -22.3145 121.289 -26.123 121.289 -30.8594 L 121.289 -39.3555 C 121.289 -44.043 118.311 -47.8027 113.77 -48.877 L 105.371 -50.8789 C 105.176 -51.3184 105.029 -51.8066 104.785 -52.1973 L 109.277 -59.7656 C 111.816 -63.8184 111.377 -68.6523 107.959 -71.875 L 101.66 -78.125 C 98.3887 -81.0059 94.043 -81.5918 90.1367 -79.4922 L 82.373 -74.707 C 81.9336 -74.9512 81.4453 -75.1465 81.0059 -75.3418 L 78.9062 -83.9844 C 77.8809 -88.5254 74.1211 -91.4551 69.3848 -91.4551 L 60.6445 -91.4551 C 55.9082 -91.4551 52.1484 -88.5254 51.123 -83.8867 L 49.0723 -75.4395 C 48.5352 -75.2441 48.0469 -75 47.5586 -74.8047 L 39.8926 -79.4922 C 35.9375 -81.5918 31.6406 -81.0547 28.2715 -78.0273 L 22.0703 -71.875 C 18.6523 -68.6523 18.2129 -63.8184 20.7031 -59.7656 L 25.2441 -52.1973 C 25 -51.8066 24.8535 -51.3184 24.6582 -50.8789 L 16.2598 -48.877 C 11.7188 -47.8027 8.74023 -44.043 8.74023 -39.3555 L 8.74023 -30.8594 C 8.74023 -26.123 11.7188 -22.3145 16.2598 -21.2891 L 24.8047 -19.2871 C 24.9512 -18.7988 25.1465 -18.4082 25.293 -18.0176 L 20.8496 -10.6934 C 18.3105 -6.83594 18.75 -1.80664 22.0703 1.46484 L 28.2227 7.61719 C 31.4941 10.8398 36.377 11.377 40.2832 8.98438 L 47.6074 4.39453 C 48.0957 4.54102 48.5352 4.78516 49.0723 4.98047 L 51.123 13.4277 C 52.1484 17.9688 55.9082 20.9473 60.6445 20.9473 Z M 64.9902 -18.8965 C 56.0547 -18.8965 48.6816 -26.2207 48.6816 -35.2539 C 48.6816 -44.1406 56.0547 -51.5137 64.9902 -51.5137 C 73.9746 -51.5137 81.2988 -44.1406 81.2988 -35.2539 C 81.2988 -26.2207 73.9746 -18.8965 64.9902 -18.8965 Z"/>
  </g>
  <g id="Heavy-M" transform="matrix(1 0 0 1 2572.92 1126)">
   <path d="M 59.375 19.7266 L 68.1641 19.7266 C 72.3633 19.7266 75.7324 17.0898 76.6113 13.0371 L 78.7598 4.05273 C 79.6387 3.75977 80.4199 3.41797 81.1523 3.07617 L 89.0137 7.95898 C 92.4805 10.1074 96.7773 9.66797 99.6582 6.78711 L 105.859 0.585938 C 108.789 -2.34375 109.18 -6.78711 106.934 -10.2051 L 102.148 -18.0176 C 102.49 -18.7012 102.783 -19.4336 103.076 -20.2148 L 112.158 -22.3633 C 116.211 -23.2422 118.799 -26.6113 118.799 -30.8105 L 118.799 -39.4043 C 118.799 -43.5547 116.211 -46.9238 112.158 -47.8516 L 103.174 -49.9512 C 102.881 -50.7812 102.588 -51.5625 102.246 -52.2461 L 107.031 -60.2539 C 109.277 -63.8184 108.936 -68.1152 105.908 -70.9961 L 99.5605 -77.1973 C 96.6309 -79.834 92.8223 -80.3223 89.3066 -78.4668 L 81.1523 -73.4375 C 80.4199 -73.7793 79.6387 -74.0723 78.8086 -74.4141 L 76.6113 -83.5449 C 75.7324 -87.6465 72.3633 -90.2344 68.1641 -90.2344 L 59.375 -90.2344 C 55.1758 -90.2344 51.8555 -87.6465 50.9277 -83.4961 L 48.7793 -74.5117 C 47.9492 -74.2188 47.0703 -73.877 46.3379 -73.4863 L 38.2324 -78.4668 C 34.668 -80.3223 30.9082 -79.8828 27.9297 -77.1484 L 21.6309 -70.9961 C 18.6035 -68.1152 18.2617 -63.8184 20.5078 -60.2539 L 25.293 -52.2461 C 24.9512 -51.5625 24.6582 -50.7812 24.3652 -49.9512 L 15.4297 -47.8516 C 11.3281 -46.9238 8.74023 -43.5547 8.74023 -39.4043 L 8.74023 -30.8105 C 8.74023 -26.6113 11.3281 -23.2422 15.4297 -22.3633 L 24.4629 -20.2148 C 24.7559 -19.4336 25.0488 -18.7012 25.3906 -18.0176 L 20.6055 -10.2051 C 18.3594 -6.78711 18.75 -2.34375 21.6797 0.585938 L 27.8809 6.78711 C 30.7617 9.66797 35.0586 10.1074 38.5742 7.95898 L 46.3867 3.07617 C 47.1191 3.41797 47.9492 3.75977 48.7793 4.05273 L 50.9277 13.0371 C 51.8555 17.0898 55.1758 19.7266 59.375 19.7266 Z M 63.7695 -18.7012 C 54.6875 -18.7012 47.2656 -26.123 47.2656 -35.2539 C 47.2656 -44.2871 54.6875 -51.7578 63.7695 -51.7578 C 72.8516 -51.7578 80.3223 -44.2871 80.3223 -35.2539 C 80.3223 -26.123 72.8516 -18.7012 63.7695 -18.7012 Z"/>
  </g>
  <g id="Bold-M" transform="matrix(1 0 0 1 2277.6 1126)">
   <path d="M 57.959 18.3594 L 66.7969 18.3594 C 70.459 18.3594 73.291 16.1133 74.0234 12.5977 L 76.3672 2.97852 C 77.5391 2.58789 78.7109 2.09961 79.7363 1.61133 L 88.1348 6.78711 C 91.1621 8.64258 94.7754 8.30078 97.2656 5.81055 L 103.516 -0.390625 C 106.055 -2.92969 106.396 -6.68945 104.395 -9.66797 L 99.3164 -17.9688 C 99.8047 -19.043 100.244 -20.1172 100.635 -21.2402 L 110.303 -23.5352 C 113.818 -24.3164 116.016 -27.1484 116.016 -30.7617 L 116.016 -39.4531 C 116.016 -43.0664 113.818 -45.8496 110.303 -46.6797 L 100.732 -48.9746 C 100.293 -50.1953 99.8535 -51.3184 99.4141 -52.2461 L 104.541 -60.791 C 106.494 -63.8672 106.152 -67.4805 103.564 -69.9707 L 97.2168 -76.2207 C 94.6777 -78.5156 91.4062 -78.9551 88.3789 -77.2949 L 79.7363 -71.9727 C 78.7109 -72.4609 77.5879 -72.9492 76.3672 -73.3887 L 74.0234 -83.1055 C 73.291 -86.6211 70.459 -88.8672 66.7969 -88.8672 L 57.959 -88.8672 C 54.2969 -88.8672 51.5137 -86.6211 50.7324 -83.1055 L 48.4375 -73.4375 C 47.2168 -73.0469 45.9961 -72.5586 44.9707 -72.0215 L 36.377 -77.2949 C 33.3008 -78.9551 30.0781 -78.5645 27.4902 -76.2207 L 21.1914 -69.9707 C 18.6035 -67.4805 18.3105 -63.8672 20.2637 -60.791 L 25.3418 -52.2461 C 24.9023 -51.3184 24.4629 -50.1953 24.0234 -48.9746 L 14.4531 -46.6797 C 10.9375 -45.8496 8.74023 -43.0664 8.74023 -39.4531 L 8.74023 -30.7617 C 8.74023 -27.1484 10.9375 -24.3164 14.4531 -23.5352 L 24.1699 -21.2402 C 24.5117 -20.1172 24.9512 -19.043 25.4395 -17.9688 L 20.3613 -9.66797 C 18.3594 -6.68945 18.7012 -2.92969 21.2402 -0.390625 L 27.4902 5.81055 C 29.9805 8.30078 33.6426 8.64258 36.6211 6.78711 L 45.0195 1.61133 C 46.0449 2.09961 47.2168 2.58789 48.4375 2.97852 L 50.7324 12.5977 C 51.5137 16.1133 54.2969 18.3594 57.959 18.3594 Z M 62.4023 -18.457 C 53.1738 -18.457 45.6055 -26.0254 45.6055 -35.3027 C 45.6055 -44.4336 53.1738 -52.002 62.4023 -52.002 C 71.6309 -52.002 79.1504 -44.4336 79.1504 -35.3027 C 79.1504 -26.0254 71.6309 -18.457 62.4023 -18.457 Z"/>
  </g>
  <g id="Semibold-M" transform="matrix(1 0 0 1 1981.84 1126)">
   <path d="M 56.9824 17.4316 L 65.8691 17.4316 C 69.1406 17.4316 71.582 15.4297 72.2656 12.3047 L 74.6582 2.29492 C 76.123 1.80664 77.5391 1.2207 78.8086 0.634766 L 87.5488 6.00586 C 90.2344 7.66602 93.4082 7.37305 95.6543 5.17578 L 101.904 -1.07422 C 104.15 -3.32031 104.443 -6.64062 102.686 -9.27734 L 97.3633 -17.9688 C 97.9492 -19.2871 98.4863 -20.6055 98.9258 -21.9727 L 109.033 -24.3652 C 112.207 -25.0488 114.111 -27.4902 114.111 -30.7617 L 114.111 -39.502 C 114.111 -42.6758 112.207 -45.166 109.033 -45.8496 L 99.0234 -48.2422 C 98.5352 -49.7559 97.9492 -51.123 97.4609 -52.2949 L 102.783 -61.1328 C 104.541 -63.8672 104.297 -67.041 101.953 -69.2871 L 95.6055 -75.5371 C 93.3594 -77.5879 90.4785 -77.9785 87.7441 -76.4648 L 78.8086 -70.9473 C 77.5391 -71.582 76.1719 -72.1191 74.707 -72.6562 L 72.2656 -82.8125 C 71.582 -85.9375 69.1406 -87.9395 65.8691 -87.9395 L 56.9824 -87.9395 C 53.7109 -87.9395 51.2695 -85.9375 50.5859 -82.7637 L 48.1934 -72.7539 C 46.7285 -72.2168 45.2637 -71.6797 43.9941 -70.9961 L 35.1074 -76.4648 C 32.373 -77.9785 29.4922 -77.6367 27.1973 -75.5371 L 20.8984 -69.2871 C 18.5547 -67.041 18.3105 -63.8672 20.0684 -61.1328 L 25.3906 -52.2949 C 24.9023 -51.123 24.3164 -49.7559 23.8281 -48.2422 L 13.8184 -45.8496 C 10.6934 -45.166 8.74023 -42.6758 8.74023 -39.502 L 8.74023 -30.7617 C 8.74023 -27.4902 10.6934 -25.0488 13.8184 -24.3652 L 23.9258 -21.9727 C 24.3652 -20.6055 24.9023 -19.2871 25.4883 -17.9688 L 20.166 -9.27734 C 18.4082 -6.64062 18.7012 -3.32031 20.9473 -1.07422 L 27.1973 5.17578 C 29.4434 7.37305 32.6172 7.66602 35.3027 6.00586 L 44.043 0.634766 C 45.3125 1.2207 46.7285 1.80664 48.1934 2.29492 L 50.5859 12.3047 C 51.2695 15.4297 53.7109 17.4316 56.9824 17.4316 Z M 61.4258 -18.3105 C 52.0996 -18.3105 44.4824 -25.9277 44.4824 -35.3027 C 44.4824 -44.5312 52.0996 -52.1973 61.4258 -52.1973 C 70.752 -52.1973 78.3691 -44.5312 78.3691 -35.3027 C 78.3691 -25.9277 70.752 -18.3105 61.4258 -18.3105 Z"/>
  </g>
  <g id="Medium-M" transform="matrix(1 0 0 1 1685.86 1126)">
   <path d="M 56.25 16.6992 L 65.1855 16.6992 C 68.1152 16.6992 70.3125 14.9414 70.9473 12.0605 L 73.3887 1.75781 C 75.0488 1.17188 76.6113 0.537109 78.0762 -0.146484 L 87.1094 5.41992 C 89.502 6.93359 92.3828 6.68945 94.3848 4.6875 L 100.684 -1.61133 C 102.686 -3.61328 102.979 -6.5918 101.367 -9.0332 L 95.8496 -17.9688 C 96.5332 -19.4336 97.168 -20.9961 97.6562 -22.5098 L 108.057 -24.9512 C 110.938 -25.5859 112.646 -27.7832 112.646 -30.7129 L 112.646 -39.502 C 112.646 -42.3828 110.938 -44.6289 108.057 -45.2637 L 97.7539 -47.7539 C 97.2168 -49.4629 96.5332 -50.9766 95.9473 -52.2949 L 101.465 -61.4258 C 103.027 -63.916 102.832 -66.6992 100.732 -68.75 L 94.3848 -75.0488 C 92.334 -76.9043 89.7461 -77.2461 87.2559 -75.8789 L 78.0762 -70.2148 C 76.6602 -70.8984 75.0977 -71.5332 73.4375 -72.1191 L 70.9473 -82.5684 C 70.3125 -85.4492 68.1152 -87.207 65.1855 -87.207 L 56.25 -87.207 C 53.2715 -87.207 51.0742 -85.4492 50.4395 -82.5684 L 47.998 -72.168 C 46.3379 -71.6309 44.7266 -70.9961 43.2617 -70.2637 L 34.1309 -75.8789 C 31.6406 -77.2461 29.1016 -76.9531 27.002 -75.0488 L 20.6543 -68.75 C 18.5547 -66.6992 18.3594 -63.916 19.9219 -61.4258 L 25.4395 -52.2949 C 24.8535 -50.9766 24.2188 -49.4629 23.6328 -47.7539 L 13.3301 -45.2637 C 10.4492 -44.6289 8.74023 -42.3828 8.74023 -39.502 L 8.74023 -30.7129 C 8.74023 -27.7832 10.4492 -25.5859 13.3301 -24.9512 L 23.7305 -22.5098 C 24.2188 -20.9961 24.8535 -19.4336 25.5371 -17.9688 L 20.0195 -9.0332 C 18.4082 -6.5918 18.7012 -3.61328 20.752 -1.61133 L 27.002 4.6875 C 29.0039 6.68945 31.8848 6.93359 34.3262 5.41992 L 43.3105 -0.146484 C 44.7754 0.537109 46.3379 1.17188 47.998 1.75781 L 50.4395 12.0605 C 51.0742 14.9414 53.2715 16.6992 56.25 16.6992 Z M 60.6934 -18.1641 C 51.3184 -18.1641 43.6523 -25.8789 43.6523 -35.3027 C 43.6523 -44.6289 51.3184 -52.2949 60.6934 -52.2949 C 70.1172 -52.2949 77.7832 -44.6289 77.7832 -35.3027 C 77.7832 -25.8789 70.1172 -18.1641 60.6934 -18.1641 Z"/>
  </g>
  <g id="Regular-M" transform="matrix(1 0 0 1 1390.08 1126)">
   <path d="M 55.2734 15.7715 L 64.2578 15.7715 C 66.7969 15.7715 68.6523 14.2578 69.1895 11.7676 L 71.7285 1.02539 C 73.6328 0.390625 75.4883 -0.341797 77.0996 -1.12305 L 86.5234 4.63867 C 88.623 5.95703 91.0156 5.76172 92.7734 4.00391 L 99.0723 -2.24609 C 100.83 -4.00391 101.074 -6.54297 99.6582 -8.64258 L 93.8965 -17.9688 C 94.7266 -19.6777 95.459 -21.4355 95.9961 -23.1934 L 106.836 -25.7812 C 109.326 -26.3184 110.791 -28.1738 110.791 -30.7129 L 110.791 -39.5508 C 110.791 -42.041 109.326 -43.8965 106.836 -44.4336 L 96.0938 -47.0215 C 95.459 -49.0234 94.6777 -50.8301 93.9941 -52.3438 L 99.7559 -61.8164 C 101.123 -63.916 100.977 -66.3086 99.1699 -68.0664 L 92.7734 -74.3652 C 90.9668 -76.0254 88.8184 -76.3184 86.6699 -75.0977 L 77.0996 -69.1895 C 75.5371 -70.0195 73.7305 -70.752 71.7285 -71.3867 L 69.1895 -82.2754 C 68.6523 -84.7656 66.7969 -86.2793 64.2578 -86.2793 L 55.2734 -86.2793 C 52.7344 -86.2793 50.8789 -84.7656 50.293 -82.2754 L 47.7539 -71.4844 C 45.8496 -70.8496 43.9941 -70.1172 42.334 -69.2383 L 32.8613 -75.0977 C 30.7129 -76.3184 28.5156 -76.0742 26.709 -74.3652 L 20.3613 -68.0664 C 18.5547 -66.3086 18.3594 -63.916 19.7754 -61.8164 L 25.4883 -52.3438 C 24.8535 -50.8301 24.0723 -49.0234 23.4375 -47.0215 L 12.6953 -44.4336 C 10.2051 -43.8965 8.74023 -42.041 8.74023 -39.5508 L 8.74023 -30.7129 C 8.74023 -28.1738 10.2051 -26.3184 12.6953 -25.7812 L 23.5352 -23.1934 C 24.0723 -21.4355 24.8047 -19.6777 25.5859 -17.9688 L 19.873 -8.64258 C 18.4082 -6.54297 18.7012 -4.00391 20.459 -2.24609 L 26.709 4.00391 C 28.4668 5.76172 30.9082 5.95703 33.0078 4.63867 L 42.3828 -1.12305 C 44.043 -0.341797 45.8496 0.390625 47.7539 1.02539 L 50.293 11.7676 C 50.8789 14.2578 52.7344 15.7715 55.2734 15.7715 Z M 59.7656 -18.0176 C 50.293 -18.0176 42.5293 -25.8301 42.5293 -35.3027 C 42.5293 -44.7266 50.293 -52.4902 59.7656 -52.4902 C 69.2383 -52.4902 77.002 -44.7266 77.002 -35.3027 C 77.002 -25.8301 69.2383 -18.0176 59.7656 -18.0176 Z"/>
  </g>
  <g id="Light-M" transform="matrix(1 0 0 1 1093.78 1126)">
   <path d="M 54.6875 15.3809 L 63.9648 15.3809 C 66.6016 15.3809 68.457 13.8672 69.043 11.2305 L 71.5332 0.732422 C 73.1934 0.146484 74.8535 -0.488281 76.3672 -1.17188 L 85.498 4.49219 C 87.7441 5.95703 90.1367 5.71289 91.9434 3.90625 L 98.4863 -2.58789 C 100.342 -4.44336 100.586 -6.93359 99.0723 -9.17969 L 93.457 -18.2617 C 94.1406 -19.8242 94.7754 -21.4355 95.3125 -23.0469 L 105.811 -25.4883 C 108.496 -26.0742 109.961 -27.9297 109.961 -30.5664 L 109.961 -39.7461 C 109.961 -42.334 108.496 -44.1895 105.811 -44.7754 L 95.3613 -47.2656 C 94.7754 -49.0234 94.0918 -50.6348 93.5059 -52.0508 L 99.1699 -61.2305 C 100.586 -63.5254 100.439 -65.8691 98.5352 -67.7734 L 91.9434 -74.2676 C 90.0879 -76.0254 87.8418 -76.3184 85.5957 -74.9512 L 76.3672 -69.1895 C 74.8535 -69.873 73.2422 -70.5078 71.5332 -71.0938 L 69.043 -81.6895 C 68.457 -84.3262 66.6016 -85.8398 63.9648 -85.8398 L 54.6875 -85.8398 C 52.0508 -85.8398 50.2441 -84.3262 49.6582 -81.6895 L 47.168 -71.1914 C 45.459 -70.6055 43.7988 -69.9707 42.2852 -69.2383 L 33.0566 -74.9512 C 30.8105 -76.3184 28.5645 -76.0742 26.709 -74.2676 L 20.1172 -67.7734 C 18.2129 -65.8691 18.0664 -63.5254 19.5312 -61.2305 L 25.1465 -52.0508 C 24.5605 -50.6348 23.877 -49.0234 23.291 -47.2656 L 12.8906 -44.7754 C 10.2051 -44.1895 8.74023 -42.334 8.74023 -39.7461 L 8.74023 -30.5664 C 8.74023 -27.9297 10.2051 -26.0742 12.8906 -25.4883 L 23.3887 -23.0469 C 23.877 -21.4355 24.5117 -19.8242 25.1953 -18.2617 L 19.5801 -9.17969 C 18.0664 -6.93359 18.3105 -4.44336 20.2148 -2.58789 L 26.709 3.90625 C 28.5156 5.71289 30.9082 5.95703 33.1543 4.49219 L 42.2852 -1.17188 C 43.8477 -0.488281 45.459 0.146484 47.168 0.732422 L 49.6582 11.2305 C 50.2441 13.8672 52.0508 15.3809 54.6875 15.3809 Z M 59.375 -17.7734 C 49.8047 -17.7734 41.8945 -25.6836 41.8945 -35.3027 C 41.8945 -44.7754 49.8047 -52.6855 59.375 -52.6855 C 68.9453 -52.6855 76.8066 -44.7754 76.8066 -35.3027 C 76.8066 -25.6836 68.9453 -17.7734 59.375 -17.7734 Z"/>
  </g>
  <g id="Thin-M" transform="matrix(1 0 0 1 797.633 1126)">
   <path d="M 53.9551 14.8438 L 63.623 14.8438 C 66.3574 14.8438 68.2129 13.3301 68.8477 10.4492 L 71.1914 0.390625 C 72.6074 -0.146484 74.0234 -0.634766 75.3418 -1.2207 L 84.1797 4.3457 C 86.5723 5.9082 88.9648 5.66406 90.8691 3.71094 L 97.6562 -3.07617 C 99.6582 -5.0293 99.9023 -7.42188 98.3398 -9.86328 L 92.8223 -18.6523 C 93.3594 -20.0195 93.8477 -21.3867 94.3848 -22.8027 L 104.492 -25.1465 C 107.373 -25.7812 108.838 -27.6367 108.838 -30.3711 L 108.838 -39.9902 C 108.838 -42.7246 107.373 -44.5801 104.492 -45.2148 L 94.3848 -47.5586 C 93.8477 -49.0234 93.3594 -50.3906 92.8223 -51.7578 L 98.3398 -60.5469 C 99.9512 -62.9883 99.707 -65.3809 97.7051 -67.334 L 90.8691 -74.1211 C 88.916 -76.0254 86.6211 -76.2695 84.1797 -74.7559 L 75.3418 -69.1895 C 74.0234 -69.7266 72.6074 -70.2148 71.1914 -70.752 L 68.8477 -80.8594 C 68.2129 -83.7891 66.3574 -85.2539 63.623 -85.2539 L 53.9551 -85.2539 C 51.2207 -85.2539 49.4141 -83.7891 48.7305 -80.8594 L 46.3867 -70.8008 C 44.9707 -70.2637 43.5547 -69.7754 42.1875 -69.1895 L 33.3496 -74.7559 C 30.9082 -76.2695 28.6133 -76.0254 26.6602 -74.1211 L 19.8242 -67.334 C 17.8223 -65.3809 17.627 -62.9883 19.1895 -60.5469 L 24.707 -51.7578 C 24.1699 -50.3906 23.6816 -49.0234 23.1445 -47.5586 L 13.1348 -45.2148 C 10.2051 -44.5801 8.74023 -42.7246 8.74023 -39.9902 L 8.74023 -30.3711 C 8.74023 -27.6367 10.2051 -25.7812 13.1348 -25.1465 L 23.1445 -22.8027 C 23.6816 -21.3867 24.1699 -20.0195 24.7559 -18.6523 L 19.1895 -9.86328 C 17.627 -7.42188 17.8711 -5.0293 19.873 -3.07617 L 26.6602 3.71094 C 28.6133 5.66406 30.957 5.9082 33.3984 4.3457 L 42.1875 -1.2207 C 43.5547 -0.634766 44.9707 -0.146484 46.3867 0.390625 L 48.7305 10.4492 C 49.4141 13.3301 51.2207 14.8438 53.9551 14.8438 Z M 58.8379 -17.5293 C 49.1211 -17.5293 41.1133 -25.5371 41.1133 -35.2539 C 41.1133 -44.873 49.1699 -52.9297 58.8379 -52.9297 C 68.5059 -52.9297 76.5625 -44.873 76.5625 -35.2539 C 76.5625 -25.5371 68.5059 -17.5293 58.8379 -17.5293 Z"/>
  </g>
  <g id="Ultralight-M" transform="matrix(1 0 0 1 501.191 1126)">
   <path d="M 53.5645 14.5996 L 63.4277 14.5996 C 66.2598 14.5996 68.0664 13.0859 68.75 10.0586 L 71.0449 0.195312 C 72.2656 -0.292969 73.584 -0.732422 74.8047 -1.2207 L 83.4961 4.24805 C 85.9863 5.85938 88.3301 5.61523 90.332 3.61328 L 97.2656 -3.32031 C 99.3164 -5.32227 99.5605 -7.66602 97.9492 -10.2539 L 92.4805 -18.7988 C 92.9688 -20.1172 93.4082 -21.3379 93.8965 -22.6562 L 103.809 -24.9512 C 106.787 -25.6348 108.301 -27.4414 108.301 -30.2734 L 108.301 -40.1367 C 108.301 -42.9199 106.787 -44.7266 103.809 -45.459 L 93.8965 -47.7539 C 93.4082 -49.0234 92.9688 -50.293 92.4805 -51.5625 L 97.9492 -60.1562 C 99.5605 -62.7441 99.3164 -65.0879 97.2656 -67.0898 L 90.332 -74.0234 C 88.3301 -76.0254 85.9863 -76.2695 83.4473 -74.6582 L 74.8047 -69.1406 C 73.584 -69.6777 72.2656 -70.0684 71.0449 -70.6055 L 68.75 -80.4688 C 68.0664 -83.4961 66.2598 -84.9609 63.4277 -84.9609 L 53.5645 -84.9609 C 50.7812 -84.9609 48.9746 -83.4961 48.291 -80.4688 L 45.9961 -70.6055 C 44.6777 -70.0684 43.457 -69.6777 42.1387 -69.1406 L 33.4961 -74.6582 C 31.0059 -76.2695 28.6133 -76.0254 26.6113 -74.0234 L 19.6777 -67.0898 C 17.627 -65.0879 17.3828 -62.7441 18.9941 -60.1562 L 24.5117 -51.5625 C 23.9746 -50.293 23.584 -49.0234 23.0469 -47.7539 L 13.2324 -45.459 C 10.2539 -44.7266 8.74023 -42.9199 8.74023 -40.1367 L 8.74023 -30.2734 C 8.74023 -27.4414 10.2539 -25.6348 13.2324 -24.9512 L 23.0469 -22.6562 C 23.584 -21.3379 23.9746 -20.1172 24.5117 -18.7988 L 18.9941 -10.2539 C 17.3828 -7.66602 17.627 -5.32227 19.6777 -3.32031 L 26.6113 3.61328 C 28.6133 5.61523 31.0059 5.85938 33.4961 4.24805 L 42.1387 -1.2207 C 43.457 -0.732422 44.6777 -0.292969 45.9961 0.195312 L 48.291 10.0586 C 48.9746 13.0859 50.7812 14.5996 53.5645 14.5996 Z M 58.5938 -17.3828 C 48.7793 -17.3828 40.6738 -25.4883 40.6738 -35.2539 C 40.6738 -44.9219 48.8281 -53.0273 58.5938 -53.0273 C 68.3105 -53.0273 76.416 -44.9219 76.416 -35.2539 C 76.416 -25.4883 68.3105 -17.3828 58.5938 -17.3828 Z"/>
  </g>
  <g id="Black-S" transform="matrix(1 0 0 1 2882.57 696)">
   <path d="M 47.4121 8.69141 L 54.248 8.69141 C 57.9102 8.69141 60.8398 6.39648 61.6211 2.88086 L 63.2324 -3.80859 C 63.6719 -3.95508 64.0625 -4.15039 64.4531 -4.29688 L 70.2637 -0.683594 C 73.291 1.17188 77.0508 0.78125 79.5898 -1.70898 L 84.4238 -6.54297 C 86.9629 -9.08203 87.3047 -12.9883 85.3516 -15.9668 L 81.8359 -21.7285 C 81.9824 -22.0703 82.1289 -22.4121 82.2754 -22.8027 L 89.0137 -24.4141 C 92.5293 -25.1953 94.8242 -28.125 94.8242 -31.7871 L 94.8242 -38.4766 C 94.8242 -42.0898 92.5293 -45.0195 89.0137 -45.8496 L 82.373 -47.4121 C 82.2266 -47.8027 82.0801 -48.1934 81.8848 -48.5352 L 85.4492 -54.4922 C 87.4023 -57.6172 87.0605 -61.377 84.4238 -63.8672 L 79.4922 -68.75 C 76.9531 -70.9961 73.584 -71.4355 70.5566 -69.8242 L 64.4531 -66.0645 C 64.0625 -66.2598 63.6719 -66.4062 63.2812 -66.6016 L 61.6211 -73.3887 C 60.8398 -76.9043 57.9102 -79.1992 54.248 -79.1992 L 47.4121 -79.1992 C 43.75 -79.1992 40.8203 -76.9043 40.0391 -73.3398 L 38.4277 -66.6504 C 37.9883 -66.5039 37.5488 -66.3086 37.1582 -66.1133 L 31.1035 -69.8242 C 28.0273 -71.4355 24.707 -71.0449 22.1191 -68.7012 L 17.2363 -63.8672 C 14.5996 -61.377 14.2578 -57.6172 16.2109 -54.4922 L 19.7754 -48.5352 C 19.5801 -48.1934 19.4336 -47.8027 19.2871 -47.4121 L 12.6465 -45.8496 C 9.13086 -45.0195 6.83594 -42.0898 6.83594 -38.4766 L 6.83594 -31.7871 C 6.83594 -28.125 9.13086 -25.1953 12.6465 -24.4141 L 19.3848 -22.8027 C 19.5312 -22.4121 19.6777 -22.0703 19.8242 -21.7285 L 16.3086 -15.9668 C 14.3555 -12.9883 14.6973 -9.08203 17.2363 -6.54297 L 22.0703 -1.70898 C 24.6094 0.78125 28.3691 1.17188 31.3965 -0.683594 L 37.207 -4.29688 C 37.5977 -4.15039 37.9883 -3.95508 38.4277 -3.80859 L 40.0391 2.88086 C 40.8203 6.39648 43.75 8.69141 47.4121 8.69141 Z M 50.8301 -22.4121 C 43.7988 -22.4121 38.0371 -28.1738 38.0371 -35.2539 C 38.0371 -42.2363 43.7988 -47.998 50.8301 -47.998 C 57.8613 -47.998 63.623 -42.2363 63.623 -35.2539 C 63.623 -28.1738 57.8613 -22.4121 50.8301 -22.4121 Z"/>
  </g>
  <g id="Heavy-S" transform="matrix(1 0 0 1 2586.76 696)">
   <path d="M 46.4844 7.8125 L 53.3691 7.8125 C 56.5918 7.8125 59.1797 5.76172 59.8633 2.63672 L 61.6211 -4.49219 C 62.3047 -4.73633 62.9883 -5.0293 63.5742 -5.27344 L 69.7754 -1.46484 C 72.4609 0.195312 75.7812 -0.146484 78.0273 -2.34375 L 82.8613 -7.17773 C 85.1562 -9.42383 85.4492 -12.8906 83.6914 -15.5273 L 79.9316 -21.6797 C 80.2246 -22.2656 80.4688 -22.9004 80.6641 -23.5352 L 87.8906 -25.2441 C 91.0156 -25.9277 93.0176 -28.5156 93.0176 -31.7871 L 93.0176 -38.4766 C 93.0176 -41.6992 91.0156 -44.2871 87.8906 -45.0195 L 80.7617 -46.6797 C 80.5664 -47.4121 80.2734 -48.0469 79.9805 -48.584 L 83.7891 -54.9316 C 85.5469 -57.666 85.2539 -60.9863 82.9102 -63.2324 L 77.9785 -68.0664 C 75.7324 -70.1172 72.7539 -70.5078 70.0684 -69.043 L 63.5742 -65.0879 C 62.9883 -65.3809 62.3047 -65.625 61.6211 -65.918 L 59.8633 -73.1445 C 59.1797 -76.2695 56.5918 -78.3203 53.3691 -78.3203 L 46.4844 -78.3203 C 43.2617 -78.3203 40.6738 -76.2695 39.9902 -73.0957 L 38.2324 -65.9668 C 37.5488 -65.7227 36.8164 -65.4297 36.2305 -65.1367 L 29.7852 -69.043 C 27.0508 -70.5078 24.1211 -70.166 21.8262 -68.0664 L 16.9434 -63.2324 C 14.5996 -60.9863 14.3066 -57.666 16.0645 -54.9316 L 19.873 -48.584 C 19.5801 -48.0469 19.3359 -47.4121 19.0918 -46.6797 L 11.9629 -45.0195 C 8.83789 -44.2871 6.83594 -41.6992 6.83594 -38.4766 L 6.83594 -31.7871 C 6.83594 -28.5156 8.83789 -25.9277 11.9629 -25.2441 L 19.1895 -23.5352 C 19.3848 -22.9004 19.6289 -22.2656 19.9219 -21.6797 L 16.1621 -15.5273 C 14.4043 -12.8906 14.6973 -9.42383 16.9922 -7.17773 L 21.8262 -2.34375 C 24.0723 -0.146484 27.3926 0.195312 30.0781 -1.46484 L 36.2793 -5.27344 C 36.8652 -5.0293 37.5488 -4.73633 38.2324 -4.49219 L 39.9902 2.63672 C 40.6738 5.76172 43.2617 7.8125 46.4844 7.8125 Z M 49.9512 -22.2656 C 42.8223 -22.2656 37.0117 -28.125 37.0117 -35.2539 C 37.0117 -42.334 42.8223 -48.1445 49.9512 -48.1445 C 57.0312 -48.1445 62.8906 -42.334 62.8906 -35.2539 C 62.8906 -28.125 57.0312 -22.2656 49.9512 -22.2656 Z"/>
  </g>
  <g id="Bold-S" transform="matrix(1 0 0 1 2291.05 696)">
   <path d="M 45.5078 6.78711 L 52.3438 6.78711 C 55.1758 6.78711 57.373 5.07812 57.959 2.39258 L 59.7656 -5.22461 C 60.791 -5.56641 61.7676 -6.00586 62.5977 -6.39648 L 69.2383 -2.29492 C 71.582 -0.878906 74.4141 -1.17188 76.3184 -3.07617 L 81.1523 -7.91016 C 83.1055 -9.81445 83.3496 -12.793 81.8359 -15.0391 L 77.832 -21.6309 C 78.2227 -22.5098 78.6133 -23.4375 78.9062 -24.3652 L 86.5723 -26.1719 C 89.3066 -26.7578 91.0156 -28.9551 91.0156 -31.7871 L 91.0156 -38.4766 C 91.0156 -41.2598 89.3066 -43.457 86.5723 -44.0918 L 79.0039 -45.8984 C 78.6621 -46.9238 78.2715 -47.8516 77.8809 -48.6328 L 81.9336 -55.4199 C 83.4473 -57.7637 83.2031 -60.5469 81.2012 -62.5 L 76.2695 -67.334 C 74.3164 -69.0918 71.8262 -69.4336 69.4824 -68.1641 L 62.5977 -63.9648 C 61.7676 -64.4043 60.8398 -64.7949 59.8145 -65.1367 L 57.959 -72.9004 C 57.373 -75.5859 55.1758 -77.2949 52.3438 -77.2949 L 45.5078 -77.2949 C 42.6758 -77.2949 40.4785 -75.5859 39.8926 -72.8516 L 38.0859 -65.2344 C 37.0605 -64.8926 36.0352 -64.4531 35.1562 -64.0137 L 28.3691 -68.1641 C 26.0254 -69.4336 23.5352 -69.1406 21.5332 -67.334 L 16.6504 -62.5 C 14.6484 -60.5469 14.4043 -57.7637 15.918 -55.4199 L 19.9219 -48.6328 C 19.5801 -47.8516 19.1895 -46.9238 18.8477 -45.8984 L 11.2305 -44.0918 C 8.54492 -43.457 6.83594 -41.2598 6.83594 -38.4766 L 6.83594 -31.7871 C 6.83594 -28.9551 8.54492 -26.7578 11.2305 -26.1719 L 18.9453 -24.3652 C 19.2383 -23.4375 19.6289 -22.5098 20.0195 -21.6309 L 16.0156 -15.0391 C 14.4531 -12.793 14.7461 -9.81445 16.6992 -7.91016 L 21.4844 -3.07617 C 23.4375 -1.17188 26.2695 -0.878906 28.5645 -2.29492 L 35.2051 -6.39648 C 36.084 -6.00586 37.0605 -5.56641 38.0859 -5.22461 L 39.8926 2.39258 C 40.4785 5.07812 42.6758 6.78711 45.5078 6.78711 Z M 48.9258 -22.1191 C 41.6992 -22.1191 35.8398 -28.0273 35.8398 -35.2539 C 35.8398 -42.4316 41.6992 -48.3398 48.9258 -48.3398 C 56.1523 -48.3398 62.0117 -42.4316 62.0117 -35.2539 C 62.0117 -28.0273 56.1523 -22.1191 48.9258 -22.1191 Z"/>
  </g>
  <g id="Semibold-S" transform="matrix(1 0 0 1 1995.05 696)">
   <path d="M 44.7754 6.10352 L 51.6602 6.10352 C 54.1504 6.10352 56.1035 4.58984 56.5918 2.19727 L 58.4961 -5.76172 C 59.7168 -6.20117 60.8887 -6.64062 61.9629 -7.17773 L 68.8965 -2.88086 C 70.9473 -1.61133 73.4375 -1.85547 75.1465 -3.56445 L 79.9805 -8.39844 C 81.6895 -10.1074 81.9336 -12.6953 80.5664 -14.7461 L 76.3672 -21.6309 C 76.8555 -22.7051 77.3438 -23.8281 77.6855 -24.9023 L 85.6934 -26.8066 C 88.1348 -27.3438 89.5996 -29.248 89.5996 -31.7871 L 89.5996 -38.4766 C 89.5996 -40.9668 88.1348 -42.8711 85.6934 -43.4082 L 77.7832 -45.3613 C 77.3438 -46.582 76.8555 -47.7539 76.416 -48.6816 L 80.6641 -55.7129 C 81.9824 -57.8125 81.7871 -60.2539 80.0293 -62.0117 L 75.0977 -66.8457 C 73.3398 -68.4082 71.1426 -68.7012 69.0918 -67.5781 L 61.9629 -63.1836 C 60.9375 -63.7207 59.8145 -64.209 58.5449 -64.5996 L 56.5918 -72.7051 C 56.1035 -75.0977 54.1504 -76.6113 51.6602 -76.6113 L 44.7754 -76.6113 C 42.2852 -76.6113 40.332 -75.0977 39.8438 -72.6562 L 37.9395 -64.6973 C 36.7188 -64.2578 35.498 -63.8184 34.4727 -63.2324 L 27.3438 -67.5781 C 25.293 -68.7012 23.0957 -68.457 21.3379 -66.8457 L 16.4062 -62.0117 C 14.6484 -60.2539 14.4531 -57.8125 15.7715 -55.7129 L 20.0195 -48.6816 C 19.5801 -47.7539 19.0918 -46.582 18.6523 -45.3613 L 10.7422 -43.4082 C 8.34961 -42.8711 6.83594 -40.9668 6.83594 -38.4766 L 6.83594 -31.7871 C 6.83594 -29.248 8.34961 -27.3438 10.7422 -26.8066 L 18.75 -24.9023 C 19.0918 -23.8281 19.5801 -22.7051 20.0684 -21.6309 L 15.8691 -14.7461 C 14.502 -12.6953 14.7461 -10.1074 16.4551 -8.39844 L 21.2891 -3.56445 C 22.998 -1.85547 25.4883 -1.61133 27.5391 -2.88086 L 34.5215 -7.17773 C 35.5469 -6.64062 36.7188 -6.20117 37.9395 -5.76172 L 39.8438 2.19727 C 40.332 4.58984 42.2852 6.10352 44.7754 6.10352 Z M 48.2422 -22.0215 C 40.9668 -22.0215 35.0098 -27.9785 35.0098 -35.3027 C 35.0098 -42.5293 40.9668 -48.4375 48.2422 -48.4375 C 55.5176 -48.4375 61.4258 -42.5293 61.4258 -35.3027 C 61.4258 -27.9785 55.5176 -22.0215 48.2422 -22.0215 Z"/>
  </g>
  <g id="Medium-S" transform="matrix(1 0 0 1 1698.85 696)">
   <path d="M 44.2383 5.61523 L 51.123 5.61523 C 53.418 5.61523 55.127 4.24805 55.6152 2.05078 L 57.5684 -6.15234 C 58.9355 -6.64062 60.2539 -7.17773 61.4258 -7.76367 L 68.6035 -3.32031 C 70.459 -2.19727 72.7051 -2.39258 74.2188 -3.90625 L 79.0527 -8.74023 C 80.6152 -10.3027 80.8594 -12.6465 79.5898 -14.4531 L 75.2441 -21.582 C 75.8301 -22.8027 76.3672 -24.0723 76.7578 -25.3418 L 85.0586 -27.2949 C 87.207 -27.7832 88.5742 -29.4922 88.5742 -31.7871 L 88.5742 -38.5254 C 88.5742 -40.7227 87.207 -42.4316 85.0586 -42.9199 L 76.8555 -44.9219 C 76.3672 -46.3379 75.7812 -47.6562 75.3418 -48.6816 L 79.6875 -56.0059 C 80.9082 -57.8613 80.7617 -60.0586 79.1504 -61.6211 L 74.2188 -66.4551 C 72.6562 -67.8711 70.6543 -68.1641 68.7988 -67.1387 L 61.4258 -62.5977 C 60.3027 -63.1836 58.9844 -63.7207 57.5684 -64.209 L 55.6152 -72.5586 C 55.127 -74.707 53.418 -76.123 51.123 -76.123 L 44.2383 -76.123 C 41.9922 -76.123 40.2832 -74.707 39.7949 -72.5586 L 37.8418 -64.3066 C 36.4746 -63.8184 35.1074 -63.2812 33.8867 -62.6465 L 26.6113 -67.1387 C 24.707 -68.1641 22.7539 -67.9199 21.1426 -66.4551 L 16.2598 -61.6211 C 14.6484 -60.0586 14.502 -57.8613 15.7227 -56.0059 L 20.0684 -48.6816 C 19.5801 -47.6562 18.9941 -46.3379 18.5547 -44.9219 L 10.3516 -42.9199 C 8.1543 -42.4316 6.83594 -40.7227 6.83594 -38.5254 L 6.83594 -31.7871 C 6.83594 -29.4922 8.1543 -27.7832 10.3516 -27.2949 L 18.6523 -25.3418 C 19.043 -24.0723 19.5801 -22.8027 20.1172 -21.582 L 15.7715 -14.4531 C 14.5508 -12.6465 14.7949 -10.3027 16.3086 -8.74023 L 21.1426 -3.90625 C 22.7051 -2.39258 24.9512 -2.19727 26.7578 -3.32031 L 33.9355 -7.76367 C 35.1074 -7.17773 36.4746 -6.64062 37.8418 -6.15234 L 39.7949 2.05078 C 40.2832 4.24805 41.9922 5.61523 44.2383 5.61523 Z M 47.7051 -21.9238 C 40.3809 -21.9238 34.375 -27.9785 34.375 -35.3027 C 34.375 -42.5781 40.3809 -48.5352 47.7051 -48.5352 C 55.0293 -48.5352 60.9863 -42.5781 60.9863 -35.3027 C 60.9863 -27.9785 55.0293 -21.9238 47.7051 -21.9238 Z"/>
  </g>
  <g id="Regular-S" transform="matrix(1 0 0 1 1402.85 696)">
   <path d="M 43.5547 4.93164 L 50.4395 4.93164 C 52.3926 4.93164 53.8574 3.75977 54.2969 1.85547 L 56.2988 -6.68945 C 57.9102 -7.22656 59.4238 -7.8125 60.791 -8.49609 L 68.2617 -3.90625 C 69.8242 -2.92969 71.7285 -3.07617 73.0469 -4.39453 L 77.8809 -9.22852 C 79.1992 -10.5469 79.3945 -12.5488 78.3203 -14.1602 L 73.7793 -21.582 C 74.4629 -22.9492 75.0977 -24.4629 75.5371 -25.8789 L 84.1797 -27.9297 C 86.0352 -28.3203 87.1582 -29.7852 87.1582 -31.7871 L 87.1582 -38.5254 C 87.1582 -40.4297 86.0352 -41.8945 84.1797 -42.2852 L 75.6348 -44.3848 C 75.0977 -46.0449 74.4141 -47.5098 73.877 -48.7305 L 78.418 -56.2988 C 79.4434 -57.9102 79.3457 -59.7656 77.9785 -61.1328 L 73.0469 -65.9668 C 71.6797 -67.1875 70.0195 -67.4316 68.4082 -66.5527 L 60.791 -61.8652 C 59.4727 -62.5488 57.959 -63.1348 56.2988 -63.6719 L 54.2969 -72.3633 C 53.8574 -74.2676 52.3926 -75.4395 50.4395 -75.4395 L 43.5547 -75.4395 C 41.6016 -75.4395 40.1367 -74.2676 39.7461 -72.3633 L 37.6953 -63.7695 C 36.1328 -63.2324 34.5215 -62.6465 33.2031 -61.9141 L 25.6348 -66.5527 C 23.9746 -67.4316 22.3145 -67.2363 20.9473 -65.9668 L 16.0156 -61.1328 C 14.6484 -59.7656 14.5508 -57.9102 15.5762 -56.2988 L 20.1172 -48.7305 C 19.5801 -47.5098 18.8965 -46.0449 18.4082 -44.3848 L 9.86328 -42.2852 C 7.95898 -41.8945 6.83594 -40.4297 6.83594 -38.5254 L 6.83594 -31.7871 C 6.83594 -29.7852 7.95898 -28.3203 9.86328 -27.9297 L 18.5059 -25.8789 C 18.8965 -24.4629 19.5312 -22.9492 20.2148 -21.582 L 15.6738 -14.1602 C 14.5996 -12.5488 14.7949 -10.5469 16.1133 -9.22852 L 20.9473 -4.39453 C 22.2656 -3.07617 24.1699 -2.92969 25.7812 -3.90625 L 33.252 -8.49609 C 34.5703 -7.8125 36.1328 -7.22656 37.6953 -6.68945 L 39.7461 1.85547 C 40.1367 3.75977 41.6016 4.93164 43.5547 4.93164 Z M 47.0215 -21.8262 C 39.5996 -21.8262 33.5938 -27.9297 33.5938 -35.3027 C 33.5938 -42.627 39.5996 -48.6816 47.0215 -48.6816 C 54.3945 -48.6816 60.4004 -42.627 60.4004 -35.3027 C 60.4004 -27.9297 54.3945 -21.8262 47.0215 -21.8262 Z"/>
  </g>
  <g id="Light-S" transform="matrix(1 0 0 1 1106.5 696)">
   <path d="M 43.0664 4.58984 L 50.1953 4.58984 C 52.2461 4.58984 53.7109 3.41797 54.1504 1.36719 L 56.1035 -6.93359 C 57.4707 -7.42188 58.8867 -7.95898 60.1074 -8.54492 L 67.334 -4.05273 C 69.043 -2.97852 70.9473 -3.125 72.3633 -4.54102 L 77.3438 -9.52148 C 78.7598 -10.9375 78.9551 -12.8906 77.832 -14.5996 L 73.3887 -21.8262 C 73.9746 -23.0957 74.5117 -24.4141 74.9023 -25.7324 L 83.252 -27.6855 C 85.3027 -28.125 86.4258 -29.5898 86.4258 -31.6406 L 86.4258 -38.6719 C 86.4258 -40.6738 85.3027 -42.1387 83.252 -42.5781 L 74.9512 -44.5801 C 74.5117 -46.0449 73.9258 -47.3633 73.4375 -48.5352 L 77.8809 -55.8105 C 79.0039 -57.5684 78.8574 -59.4238 77.4414 -60.8398 L 72.3633 -65.8691 C 70.8984 -67.1875 69.1895 -67.4316 67.4316 -66.4062 L 60.1074 -61.8652 C 58.8867 -62.4512 57.5684 -62.9395 56.1035 -63.4277 L 54.1504 -71.8262 C 53.7109 -73.877 52.2461 -75.0488 50.1953 -75.0488 L 43.0664 -75.0488 C 41.0156 -75.0488 39.5996 -73.877 39.1602 -71.8262 L 37.1582 -63.5254 C 35.791 -63.0371 34.375 -62.5 33.1543 -61.8652 L 25.8301 -66.4062 C 24.0723 -67.4316 22.3633 -67.2363 20.8984 -65.8691 L 15.8203 -60.8398 C 14.4043 -59.4238 14.2578 -57.5684 15.3809 -55.8105 L 19.8242 -48.5352 C 19.3359 -47.3633 18.75 -46.0449 18.3105 -44.5801 L 10.0098 -42.5781 C 7.95898 -42.1387 6.83594 -40.6738 6.83594 -38.6719 L 6.83594 -31.6406 C 6.83594 -29.5898 7.95898 -28.125 10.0098 -27.6855 L 18.3594 -25.7324 C 18.75 -24.4141 19.2871 -23.0957 19.873 -21.8262 L 15.4297 -14.5996 C 14.3066 -12.8906 14.502 -10.9375 15.918 -9.52148 L 20.8984 -4.54102 C 22.3145 -3.125 24.2188 -2.97852 25.9277 -4.05273 L 33.1543 -8.54492 C 34.4238 -7.95898 35.791 -7.42188 37.1582 -6.93359 L 39.1602 1.36719 C 39.5996 3.41797 41.0156 4.58984 43.0664 4.58984 Z M 46.6797 -21.6309 C 39.1602 -21.6309 33.0566 -27.832 33.0566 -35.3027 C 33.0566 -42.6758 39.209 -48.8281 46.6797 -48.8281 C 54.1016 -48.8281 60.2539 -42.6758 60.2539 -35.3027 C 60.2539 -27.832 54.1016 -21.6309 46.6797 -21.6309 Z"/>
  </g>
  <g id="Thin-S" transform="matrix(1 0 0 1 810.255 696)">
   <path d="M 42.4316 4.10156 L 49.9023 4.10156 C 52.0508 4.10156 53.4668 2.92969 53.9551 0.732422 L 55.8594 -7.27539 C 56.9824 -7.66602 58.1543 -8.10547 59.2285 -8.54492 L 66.1621 -4.19922 C 68.0176 -2.97852 69.9219 -3.17383 71.3867 -4.6875 L 76.6602 -9.96094 C 78.2227 -11.4258 78.418 -13.3301 77.1973 -15.2344 L 72.8027 -22.168 C 73.291 -23.291 73.6816 -24.4141 74.1211 -25.5371 L 82.0801 -27.3926 C 84.3262 -27.8809 85.498 -29.3457 85.498 -31.4453 L 85.498 -38.916 C 85.498 -41.0156 84.3262 -42.4805 82.0801 -42.9688 L 74.1211 -44.8242 C 73.6816 -46.0449 73.291 -47.168 72.8516 -48.2422 L 77.1973 -55.1758 C 78.418 -57.0801 78.2227 -58.9355 76.709 -60.4492 L 71.3867 -65.7227 C 69.873 -67.1875 68.0664 -67.3828 66.2109 -66.2109 L 59.2285 -61.8164 C 58.1543 -62.3047 56.9824 -62.6953 55.8594 -63.1348 L 53.9551 -71.1426 C 53.4668 -73.3887 52.0508 -74.5605 49.9023 -74.5605 L 42.4316 -74.5605 C 40.2832 -74.5605 38.8672 -73.3887 38.3301 -71.1426 L 36.4746 -63.1836 C 35.3027 -62.7441 34.1797 -62.3047 33.0566 -61.8652 L 26.0742 -66.2109 C 24.1699 -67.3828 22.3633 -67.1875 20.8984 -65.7227 L 15.5762 -60.4492 C 14.0625 -58.9355 13.8672 -57.0801 15.0879 -55.1758 L 19.4336 -48.2422 C 18.9941 -47.168 18.6035 -46.0449 18.1641 -44.8242 L 10.2051 -42.9688 C 8.00781 -42.4805 6.83594 -41.0156 6.83594 -38.916 L 6.83594 -31.4453 C 6.83594 -29.3457 8.00781 -27.8809 10.2051 -27.3926 L 18.1641 -25.5371 C 18.6035 -24.4141 18.9941 -23.291 19.4824 -22.168 L 15.0879 -15.2344 C 13.8672 -13.3301 14.0625 -11.4258 15.625 -9.96094 L 20.8984 -4.6875 C 22.3633 -3.17383 24.2188 -2.97852 26.0742 -4.19922 L 33.0566 -8.54492 C 34.1797 -8.10547 35.3027 -7.66602 36.4746 -7.27539 L 38.3301 0.732422 C 38.8672 2.92969 40.2832 4.10156 42.4316 4.10156 Z M 46.1914 -21.3867 C 38.623 -21.3867 32.3242 -27.6855 32.3242 -35.2539 C 32.3242 -42.7734 38.623 -49.0234 46.1914 -49.0234 C 53.7598 -49.0234 60.0098 -42.7734 60.0098 -35.2539 C 60.0098 -27.6855 53.7598 -21.3867 46.1914 -21.3867 Z"/>
  </g>
  <g id="Ultralight-S" transform="matrix(1 0 0 1 513.813 696)">
   <path d="M 42.0898 3.85742 L 49.7559 3.85742 C 51.9531 3.85742 53.3691 2.68555 53.8574 0.390625 L 55.7129 -7.42188 C 56.6895 -7.8125 57.7637 -8.20312 58.7402 -8.59375 L 65.5762 -4.29688 C 67.4805 -3.02734 69.3848 -3.22266 70.8984 -4.78516 L 76.3184 -10.1562 C 77.8809 -11.7188 78.0762 -13.5742 76.8555 -15.5762 L 72.5098 -22.3145 C 72.9492 -23.3887 73.291 -24.3652 73.6816 -25.4395 L 81.4941 -27.2461 C 83.7891 -27.7832 84.9609 -29.1992 84.9609 -31.3477 L 84.9609 -39.0137 C 84.9609 -41.2109 83.7891 -42.627 81.4941 -43.1641 L 73.6816 -44.9707 C 73.291 -46.0449 72.9492 -47.0703 72.5098 -48.0957 L 76.8555 -54.8828 C 78.0762 -56.8359 77.9297 -58.6914 76.3184 -60.2539 L 70.8984 -65.625 C 69.3359 -67.1875 67.5293 -67.3828 65.5762 -66.1133 L 58.7402 -61.8164 C 57.7637 -62.207 56.6895 -62.5977 55.7129 -62.9883 L 53.8574 -70.8008 C 53.3691 -73.0957 51.9531 -74.2676 49.7559 -74.2676 L 42.0898 -74.2676 C 39.8926 -74.2676 38.4766 -73.0957 37.9395 -70.8008 L 36.1328 -62.9883 C 35.0586 -62.5977 34.082 -62.207 33.0078 -61.8164 L 26.1719 -66.1133 C 24.2676 -67.3828 22.4121 -67.1875 20.8496 -65.625 L 15.4785 -60.2539 C 13.8672 -58.6914 13.6719 -56.8359 14.9414 -54.8828 L 19.2383 -48.0957 C 18.8477 -47.0703 18.457 -46.0449 18.0664 -44.9707 L 10.3027 -43.1641 C 8.00781 -42.627 6.83594 -41.2109 6.83594 -39.0137 L 6.83594 -31.3477 C 6.83594 -29.1992 8.00781 -27.7832 10.3027 -27.2461 L 18.0664 -25.4395 C 18.457 -24.3652 18.8477 -23.3887 19.2383 -22.3145 L 14.9414 -15.5762 C 13.6719 -13.5742 13.8672 -11.7188 15.4785 -10.1562 L 20.8496 -4.78516 C 22.4121 -3.22266 24.2676 -3.02734 26.2207 -4.29688 L 33.0078 -8.59375 C 34.082 -8.20312 35.0586 -7.8125 36.1328 -7.42188 L 37.9395 0.390625 C 38.4766 2.68555 39.8926 3.85742 42.0898 3.85742 Z M 45.9473 -21.2891 C 38.2812 -21.2891 31.9824 -27.5879 31.9824 -35.2539 C 31.9824 -42.8223 38.3301 -49.1211 45.9473 -49.1211 C 53.5645 -49.1211 59.9121 -42.8223 59.9121 -35.2539 C 59.9121 -27.5879 53.5645 -21.2891 45.9473 -21.2891 Z"/>
  </g>
 </g>
</svg>
